<svg enable-background="new 630 796 200 200" height="200" viewBox="630 796 200 200" width="200" xmlns="http://www.w3.org/2000/svg"><path d="m787.116 872.255h-4.284v-23.424c0-29.132-23.699-52.831-52.832-52.831-29.13 0-52.83 23.699-52.83 52.831v23.424h-4.287c-11.133 0-20.159 9.025-20.159 20.159v62.589c0 22.642 18.354 40.997 40.996 40.997h72.559c22.642 0 40.996-18.355 40.996-40.997v-62.589c0-11.134-9.025-20.159-20.159-20.159zm-49.61 62.29v25.462c0 4.145-3.361 7.506-7.506 7.506s-7.506-3.361-7.506-7.506v-25.462c-5.718-2.788-9.667-8.639-9.667-15.428 0-9.484 7.689-17.174 17.173-17.174 9.485 0 17.174 7.689 17.174 17.174 0 6.789-3.951 12.641-9.668 15.428zm26.22-62.29h-67.448v-23.424c0-18.596 15.128-33.725 33.723-33.725 18.597 0 33.725 15.129 33.725 33.725z"/></svg>