<svg enable-background="new 796 729.37 200 200" height="200" viewBox="796 729.37 200 200" width="200" xmlns="http://www.w3.org/2000/svg"><path d="m947.232 737.06c-26.891 0-48.769 21.876-48.769 48.769v21.623h-83.855c-10.277 0-18.609 8.332-18.609 18.609v57.775c0 20.9 16.943 37.844 37.843 37.844h66.979c20.9 0 37.843-16.943 37.843-37.844v-57.776c0-10.277-8.331-18.609-18.608-18.609h-3.955v-21.623c0-17.166 13.965-31.131 31.131-31.131 17.165 0 31.131 13.965 31.131 31.131v31.413c0 4.871 3.947 8.819 8.817 8.819s8.819-3.949 8.819-8.819v-31.413c.001-26.891-21.876-48.768-48.767-48.768zm-73.299 128.367v23.546c0 3.836-3.109 6.942-6.942 6.942s-6.942-3.107-6.942-6.942v-23.546c-5.288-2.578-8.94-7.99-8.94-14.269 0-8.772 7.111-15.883 15.882-15.883 8.772 0 15.884 7.11 15.884 15.883 0 6.279-3.655 11.692-8.942 14.269z"/></svg>