<svg xmlns="http://www.w3.org/2000/svg" viewBox="0 0 928 60" preserveAspectRatio="none" style="font-family:sans-serif;alignment-baseline:middle;font-size:12px; color:white; fill: white;">
    <g transform="translate(2 2)">
        <text x="5" y="8">Data</text>
        <circle r="3" cx="159" cy="5" opacity=".3" />
        <circle r="3" cx="206.6" cy="5" opacity=".3" />
        <circle r="3" cx="250.8" cy="5" opacity=".3" />
        <circle r="3" cx="148.5" cy="5" opacity=".3" />
        <circle r="3" cx="446.7" cy="5" opacity=".3" />
        <circle r="3" cx="209.5" cy="5" opacity=".3" />
        <circle r="3" cx="187.2" cy="5" opacity=".3" />
        <circle r="3" cx="254.2" cy="5" opacity=".3" />
        <circle r="3" cx="193.3" cy="5" opacity=".3" />
        <circle r="3" cx="145.8" cy="5" opacity=".3" />
        <circle r="3" cx="312.1" cy="5" opacity=".3" />
        <circle r="3" cx="235.5" cy="5" opacity=".3" />
        <circle r="3" cx="275.1" cy="5" opacity=".3" />
        <circle r="3" cx="209.2" cy="5" opacity=".3" />
        <circle r="3" cx="291.3" cy="5" opacity=".3" />
        <circle r="3" cx="161.7" cy="5" opacity=".3" />
        <circle r="3" cx="355.7" cy="5" opacity=".3" />
        <circle r="3" cx="349" cy="5" opacity=".3" />
        <circle r="3" cx="190.9" cy="5" opacity=".3" />
        <circle r="3" cx="383.9" cy="5" opacity=".3" />
        <circle r="3" cx="248.7" cy="5" opacity=".3" />
        <circle r="3" cx="220.5" cy="5" opacity=".3" />
        <circle r="3" cx="243.4" cy="5" opacity=".3" />
        <circle r="3" cx="296.6" cy="5" opacity=".3" />
        <circle r="3" cx="267.2" cy="5" opacity=".3" />
        <circle r="3" cx="225" cy="5" opacity=".3" />
        <circle r="3" cx="156.4" cy="5" opacity=".3" />
        <circle r="3" cx="725.7" cy="5" opacity=".3" />
        <circle r="3" cx="130" cy="5" opacity=".3" />
        <circle r="3" cx="327.9" cy="5" opacity=".3" />
        <circle r="3" cx="644.7" cy="5" opacity=".3" />
        <circle r="3" cx="217.1" cy="5" opacity=".3" />
        <circle r="3" cx="143.2" cy="5" opacity=".3" />
        <circle r="3" cx="212.3" cy="5" opacity=".3" />
        <circle r="3" cx="338.6" cy="5" opacity=".3" />
        <circle r="3" cx="235.6" cy="5" opacity=".3" />
        <circle r="3" cx="227.6" cy="5" opacity=".3" />
        <circle r="3" cx="261.9" cy="5" opacity=".3" />
        <circle r="3" cx="288.3" cy="5" opacity=".3" />
        <circle r="3" cx="305.5" cy="5" opacity=".3" />
        <circle r="3" cx="233" cy="5" opacity=".3" />
        <circle r="3" cx="202" cy="5" opacity=".3" />
        <circle r="3" cx="203.9" cy="5" opacity=".3" />
        <circle r="3" cx="534.8" cy="5" opacity=".3" />
        <circle r="3" cx="247.4" cy="5" opacity=".3" />
        <circle r="3" cx="513.7" cy="5" opacity=".3" />
        <circle r="3" cx="366.3" cy="5" opacity=".3" />
        <circle r="3" cx="172.3" cy="5" opacity=".3" />
        <circle r="3" cx="130.1" cy="5" opacity=".3" />
        <circle r="3" cx="196" cy="5" opacity=".3" />
        <circle r="3" cx="923" cy="5" opacity=".3" />
        <circle r="3" cx="399.2" cy="5" opacity=".3" />
        <circle r="3" cx="184.3" cy="5" opacity=".3" />
        <circle r="3" cx="579.1" cy="5" opacity=".3" />
        <circle r="3" cx="462.7" cy="5" opacity=".3" />
        <circle r="3" cx="177.5" cy="5" opacity=".3" />
        <circle r="3" cx="169.6" cy="5" opacity=".3" />
        <circle r="3" cx="140.6" cy="5" opacity=".3" />
        <circle r="3" cx="130" cy="5" opacity=".3" />
        <circle r="3" cx="393.8" cy="5" opacity=".3" />
        <circle r="3" cx="222.3" cy="5" opacity=".3" />
        <circle r="3" cx="166.9" cy="5" opacity=".3" />
        <circle r="3" cx="320.1" cy="5" opacity=".3" />
        <circle r="3" cx="209.1" cy="5" opacity=".3" />
        <circle r="3" cx="130" cy="5" opacity=".3" />
        <circle r="3" cx="301.5" cy="5" opacity=".3" />
        <circle r="3" cx="277.7" cy="5" opacity=".3" />
        <circle r="3" cx="240.8" cy="5" opacity=".3" />
        <circle r="3" cx="175.3" cy="5" opacity=".3" />
        <circle r="3" cx="486.4" cy="5" opacity=".3" />
        <circle r="3" cx="314.8" cy="5" opacity=".3" />
        <circle r="3" cx="430.9" cy="5" opacity=".3" />
        <circle r="3" cx="188.6" cy="5" opacity=".3" />
        <circle r="3" cx="288.3" cy="5" opacity=".3" />
        <circle r="3" cx="137.2" cy="5" opacity=".3" />
        <circle r="3" cx="222.4" cy="5" opacity=".3" />
        <circle r="3" cx="196" cy="5" opacity=".3" />
        <circle r="3" cx="330.5" cy="5" opacity=".3" />
        <circle r="3" cx="237.1" cy="5" opacity=".3" />
        <circle r="3" cx="257.5" cy="5" opacity=".3" />
        <circle r="3" cx="283" cy="5" opacity=".3" />
        <circle r="3" cx="132.4" cy="5" opacity=".3" />
        <circle r="3" cx="151.1" cy="5" opacity=".3" />
        <circle r="3" cx="180.1" cy="5" opacity=".3" />
        <circle r="3" cx="372.7" cy="5" opacity=".3" />
        <circle r="3" cx="164.3" cy="5" opacity=".3" />
        <circle r="3" cx="261.9" cy="5" opacity=".3" />
        <circle r="3" cx="182.8" cy="5" opacity=".3" />
        <circle r="3" cx="169.8" cy="5" opacity=".3" />
        <circle r="3" cx="415" cy="5" opacity=".3" />
        <circle r="3" cx="263.5" cy="5" opacity=".3" />
        <circle r="3" cx="199.9" cy="5" opacity=".3" />
        <circle r="3" cx="230.3" cy="5" opacity=".3" />
        <circle r="3" cx="271" cy="5" opacity=".3" />
        <circle r="3" cx="214.4" cy="5" opacity=".3" />
        <circle r="3" cx="197.7" cy="5" opacity=".3" />
        <circle r="3" cx="341.4" cy="5" opacity=".3" />
        <circle r="3" cx="182.8" cy="5" opacity=".3" />
        <circle r="3" cx="155.1" cy="5" opacity=".3" />
        <circle r="3" cx="135.2" cy="5" opacity=".3" />
    </g>
    <g transform="translate(2 20)">
        <text x="5" y="10">Quantile</text>
        <path style="stroke:#000;fill:#fff" d="M130 0h68v10h-68z" />
        <path style="stroke:#000;fill:pink" d="M198 0h77v10h-77z" />
        <path style="stroke:#000;fill:red" d="M275 0h648v10H275z" />
        <text x="5" y="30">Quantize</text>
        <path style="stroke:#000;fill:#fff" d="M130 20h264v10H130z" />
        <path style="stroke:#000;fill:pink" d="M394 20h265v10H394z" />
        <path style="stroke:#000;fill:red" d="M659 20h264v10H659z" />
    </g>
</svg>