<svg xmlns="http://www.w3.org/2000/svg" id="dksegbzwd-" width="650" height="369"><defs><pattern id="dksegbzwd--noise" patternUnits="userSpaceOnUse" width="60" height="60"><path fill="#ffffffff" d="M0 0h60v60H0z"/></pattern><filter id="dksegbzwd--secondGlow" filterUnits="userSpaceOnUse"><feMorphology in="SourceGraphic" radius=".1" operator="dilate" result="MASK_OUTER"/><feColorMatrix in="MASK_OUTER" type="matrix" values="0 0 0 0 0.17647058823529413 0 0 0 0 0.14901960784313725 0 0 0 0 0.14901960784313725 0 0 0 1 0" result="OUTER_COLORED"/><feGaussianBlur in="OUTER_COLORED" stdDeviation="2.3" result="OUTER_BLUR"/><feComposite in="OUTER_BLUR" in2="SourceGraphic" operator="out" result="OUTGLOW"/><feMorphology in="SourceAlpha" radius=".4" operator="erode" result="INNER_ERODED_A"/><feComponentTransfer in="INNER_ERODED_A" result="INNER_ERODED"><feFuncA type="linear" slope="1000" intercept="0"/></feComponentTransfer><feGaussianBlur in="INNER_ERODED" stdDeviation="0" result="INNER_BLURRED"/><feColorMatrix in="INNER_BLURRED" type="matrix" values="0 0 0 0 0.7686274509803922 0 0 0 0 0.7372549019607844 0 0 0 0 0.7372549019607844 0 0 0 -1 0.5333333333333333" result="INNER_COLOR"/><feComposite in="INNER_COLOR" in2="SourceGraphic" operator="in" result="INGLOW"/><feMerge><feMergeNode in="OUTGLOW"/><feMergeNode in="INGLOW"/></feMerge></filter></defs><svg><g id="outline" style="will-change:opacity;fill:url(#dksegbzwd--noise)"><path d="M-56-7h718v377H-56Zm23 283h167v90H-33Zm167 37h78v53h-78Z" class="outline"/></g><g id="United States of America ADM1" style="will-change:opacity" class="choro"><path d="m365 259 1-1-1-5-1-1 1-2v-1h1l-1-3 2-1v-1l2-4 2-1-1-2 2-2-1-2 3-1-1-1 24-2 1 2v16l-1 26 3 20-2 1h-3l-1-1-5 2-2 2h-1l-2-3-2-3 1-5-22 1v-3l1-1v-3l1-1 1-4 3-4h-1l2-3-2-1-1-4 1-2Z" id="Mississippi" class="adm ssc-1-1"/><path d="M534 206Zm-68-7 15-2 19-3 27-5 2 1 2 4-2-1-5 4h-3l1 1 6-2 1 4v-3l2-1 2 3-3 6-2 1-2-1-2 1-5-1 6 1v4l-2 2h1l2-1h3l-2 4-6 1-3 3-3 3-1 3-1 5-1-1-5 2-15-11-13 2v-2l-3-2-15 1-4 3-4 1-13 2v-3l3-2v-1l2-3h3l3-3 2-1 1-2 3-2v1l3-3h3l1-3 2-1Zm61-11Zm1 0h1l1 4 3 4-1-1Z" id="North Carolina" class="adm ssc-1-2"/><path d="m233 202 11 1 21 1 19 1h40l1 7 2 15v25l-5-2-1-1-3-2v2l-4-1-3 1h-3l-2 2-4-2h-1l-2-2-3 3v-2l-2 1-4-2-2 2-1-2-4-3-2 2-1-2-2 1-2-2h-3v-1l-5-1-2-3h-2l1-27-32-2Z" id="Oklahoma" class="adm ssc-1-1"/><path d="m527 168 2-1-1 4-3 9v-5Zm4-1Zm-3 7Zm-1 15-27 5-19 3-15 2-22 3 6-3v-1l2-1 1-4 4-2 4-4 2 3h3l2-2 1 1 3-1 4-3 3-1-1-2 3-5v-2l2-5v-2l4 2 1-1 1-6 2 1v-2l2-1 2-3-1-4 7 3v-3l3 1v1l5 2 1 2-1 3h-1v3l1 1 2-1 2 2h3l1 2 4 1v3l1 4-2 2 3 2-1 2-3-2v1l2 2 2-2h3l3 5h-2Zm-1-11Z" id="Virginia" class="adm ssc-1-5"/><path d="M501 154v3l-7-3 1 4-2 3-2 1v2l-2-1-1 6-1 1-4-2v2l-2 5v2l-3 5 1 2-3 1-4 3-3 1-1-1-2 2h-3l-2-3-4-2-2-4-3-2v-4h3l1-3v-2l1-4 2 2 1-6h1l1-2h3l3-4v-6l1-4-1-3 1-2 2 13 11-2 1 7 4-4h1l2-3 3 1v-1l3-2 3 1Z" id="West Virginia" class="adm ssc-1-1"/><path d="m357 308 1-2 3 1-2 1Zm8-49 1 2-1 2 1 4 2 1-2 3h1l-3 4-1 4-1 1v3l-1 1v3l22-1-1 5 2 3 2 3-2 1-5-3h-1l-2 2v3h5l1-2 2 1-1 1 3 1 1-2 2 2-3 3-1 2 2 2h4l1 4v1l-4-3-4-1-1-2-2 1v3l-2 2-1-3-2-1-2 1-1 3h-2l-1-1-4-1 1-1-1-2h-3l-1-3h-3v-1l-4 1 1 2-3 1-3-1-7-2h-3l-5 1-1-1 2-1v-2l1-2-1-3v-2l2-5 1-3-2-3-1-2-1-2v-2l-1-2-2-2v-14Z" id="Louisiana" class="adm ssc-1-1"/><path d="m425 73 3-2 1 2v1Zm-6 3Zm-9 1Zm-1 3 1-2 1 2Zm-3 7Zm-1 2Zm-7-21Zm5 66 2-2 2-5 1-6-1-5-4-7 1-4-1-3 2-4v-5h1v-3l3-1 1-3 1 2-1 3 1 1 1-3v3l1-3-1-4 2-2 2-1-2-2 1-2 3-1 2 1h3l1 2h2l4 1 3 4h-1l-1 2h2v3l1 5-2 2-1 3h-2v4l2 2 2-3 2-3 3-2 2 1 1 2 3 8 1 3v6h-1l-1-1-1 1-1 4-1 1-1 4-1 1-1 3-13 2-1-1Zm-31-82 1-1 5-3h2l-2 2-5 3Zm-10 19 4-2 2-2h4l7-7 1-1 3-2h4l-5 4-1 3v3l2-2h5l4 5 3-1 3 1 1-1 4-3 6-1 4-1 1 4 8-2 1 4-2 1h3l1 2-4 1-3-1-1 3-2-2-4-1h-1l-1 2-3 1h-3l-1 3h-2v2h-1l1-3h-2l-2 2v-1l-2 2-3 8-1-1v-2h-2l1-5-4-1v-2l-6-1-4-1-10-2-1-2Z" id="Michigan" class="adm ssc-1-4"/><path d="M571 110Zm-6 1 2-3 1 2Zm-29-13 8-2 11-2 2-3 2-1 2 3h1l-2 2-1 3h3l2 2v2h2v2h3l2-1 1 1-3 1-3 3-1-2-4 3-1-2-2-1-1-3-4 1-17 4Z" id="Massachusetts" class="adm ssc-1-4"/><path d="m110 58 1-2v-4l5-22 2-12 9 2-3 14 2 4-1 3 2 3 2 1 2 5v1l3 2v1l2 1-2 5-1 3 1 2-2 1-1 3 2 2 2-1 2-2 2 2-1 2 2 5 1 1-1 2 3 3v4l2 1 1-1 3 1 2-2 1 1h3l3 1 1-2h1l2 4-5 34-30-6-30-6 6-24 2-5v-1l-3-1 1-3 2-3h2l1-3 5-8v-2l-2-1Z" id="Idaho" class="adm ssc-1-1"/><path d="M489 363Zm6-2Zm-2 1Zm0 0Zm-2 1Zm-10-25Zm-43-39Zm1-18 2 4 16-1 15-1 1 2h1v-5l1-1h5l1 2 5 12 4 7 7 8h-2v2l-1-3-1-1 3 6 4 7 2 3 3 5 1 3 1 3v9l-2 6 1 2-2 2-4 1-3 2-1-3 2 1v-2h-2l-4-5-3-1h-2l-2-7h-2l-2-2v-3l-1-1v2l-2-1-2-2-3-6 2-5h-1l-1-1h-2l2 1-1 3-2-2 1-8-1-7-2-3h-3l-3-3-2-1v-2l-2-1-2-2-4-2-4 1v2h-2l-4 3-5 2v-2l-6-5v1l-2-1-5-2h2l-4-1-1 1-4 1-3-3v3l-3 2v-6l-3-2v-2l20-2Zm42 55Z" id="Florida" class="adm ssc-1-0"/><path d="m229 118 55 3 1 1 5 3 1-2h5l6 4 1 2h2l2 6 1 1 1 2-1 4 2 1v4l1 4v2l1 2 1 4 2 1v3h2l-71-2 1-14-21-1Z" id="Nebraska" class="adm ssc-1-1"/><path d="M62 28Zm-1 1Zm0 0Zm5-12 1 2v1l-2-2 1-2-2-1 3-2v2h-1Zm-2-5Zm1-4 1 1-1 1Zm-2 1 1 1-2 1Zm55 9-2 12-5 22v4l-1 2-19-4H81l-2 1-3-1-1-1-6 1v-1l-3-2h-2l-5 1-4-3v-6l-1-2h-3v-2l-2-1h-2l-2-2h2l1-3 1-1-2-1v-2h3l-2-2-1 1 1-5-1-1 1-5-1-3v-3l2-3 4 4 5 3h3l1 1h2v3l-6 6 3-2 2-1 2-2v2h-1v4l-2 2-1-1v3l2-2h2v-4l1-2 2-2v-4l-2 1 1-2h1l-2-3 2 1 1-2V8l-2 1V6l1-1ZM47 36Zm17-19Zm1 7Zm-2 3Z" id="Washington" class="adm ssc-1-4"/><path d="M233 202v7h-1l-2 35-2 14-1 14-41-4v2l1 1-20-2v6l-10-2 11-78 23 3v1Z" id="New Mexico" class="adm ssc-1-4"/><path d="M305 129h-2l-1-2-6-4h-5l-1 2-5-3-1-1-55-3 2-27 1-13 30 2 42 1v2l-3 3 2 2 2 2v25l-1 3 1 2-2 5Z" id="South Dakota" class="adm ssc-1-1"/><path d="m320 315 3-3 2-1Zm-28 29Zm0-3 1-2 1-4Zm-59-132 32 2-1 27h2l2 3 5 1v1h3l2 2 2-1 1 2 2-2 4 3 1 2 2-2 4 2 2-1v2l3-3 2 2h1l4 2 2-2h3l3-1 4 1v-2l3 2 1 1 5 2 1 1h4v21l2 2 1 2v2l1 2 1 2 2 3-1 3-2 5v2l1 3-1 2-2 3 1 1-3 1-8 4 3-3-3 1 1-3h-3l-1 2 1 1 1 3-3 2-1 2-2 2-3 1-4 1-3 2v-2l-4 2-2-2 4 4-3 1h-2v2l-3 1v-1l-2 2h2l-2 3-4-1 3 3-2 5-1-1-2 2h3l-1 3-1 1 2 8 1 2 1 2v2l-3 1-2-2-8-1-2-2h-3l-2-2-3-1-2-6-2-2v-7l-2-2-3-2-1-3-3-4-1-3-2-2-2-4v-3l-4-5-3-2-2-3-3 1-4-1-3-1-1 1h-4l-1 3-1 4-2 1-2 2-3-1-4-3-3-1-2-3-3-2-2-4v-4l-2-3v-3l-3-3-2-1-2-3-2-2-2-3-3-2-2-3-1-1-1-1v-2l41 4 1-14 2-14 2-35Zm69 118-3 2v-1Zm-3 2Zm-4 29Z" id="Texas" class="adm ssc-1-1"/><path d="m54 224 2 1v2Zm-2 6 2 3-1-1Zm-10-6Zm1-11 2 1-4-1Zm-4 1-1-2h1Zm-4-3ZM27 93l17 5 14 4 10 3-11 40 8 11 9 15 13 19 9 14 6 9v1l1 3 1 4 2 3-4 1-2 2-1 6-2 1-1 5 2 1-1 3-2 1-28-4 1-2h-2l1-6-2-4-2-3-4-4h-1l-1-1v-2l-1-2h-3l-4-3v-2l-3-3h-3l-1-1-6-2-1-2 1-3 1-4-2-3 1-1-3-5h-1l-3-9-1-2v-4h2l1-2-1-3h-2l-2-4 1-2-1-3 1-3h1v3l2 2v-3l-1-2v-2l2-1-3-2-1 4-2-3-2-1 1-2-1-4-1-2-3-7 1-1v-4l1-3v-4l-1-4-2-3v-3l5-5v-2l3-5v-4l-1-1Z" id="California" class="adm ssc-1-4"/><path d="m400 293-3-20 1-26v-16l-1-2 29-2 8 29 4 8-2 2v3l1 5v4l2 3-11 1-20 2v2l3 2v3l-1 3h-3l-2-1v-4h-1l-1 5Z" id="Alabama" class="adm ssc-1-1"/><path d="m440 225 13-2-2 3v2l4 2h2l2 4 3 3 3 2 1 2 4 1v2l3 3 2 1 2 5 3 2 2 4 2 1v2l-2 1v5l-2 5v2l1 4h-6l-1 1v5h-1l-1-2-15 1-16 1-2-4-2-3v-4l-1-5v-3l2-2-4-8-8-29Z" id="Georgia" class="adm ssc-1-1"/><path d="m482 152-11 2-2-13-3-18 7-5 1 4 44-9 1 1h2l2 5 3 1-3 6 1 2-1 1 1 3 2 2 3 2v1l-5 6h-2l-2 2Z" id="Pennsylvania" class="adm ssc-1-4"/><path d="m325 212-1-7v-29l-2-2-1-2-2-2 2-4v-1h-3l-1-2h-2v-3l-2-1-1-4h26l16-1 3 3-1 2 1 3 1 4 3 3 4 3 1 5h1l1-1 4 2-1 3-1 3v2l5 5 1-1 4 4 1 3-1 2 2 4h2v6l-2-1v2h-2l1 3h-2l1 2-1 2h-8l4-4-1-3Z" id="Missouri" class="adm ssc-1-1"/><path d="m244 203-11-1-42-3v-1l-23-3 2-16v-1l5-38 51 6 21 1-1 14Z" id="Colorado" class="adm ssc-1-5"/><path d="m127 118 30 6-2 13 20 3-5 38v1l-2 16-54-8 1-9Z" id="Utah" class="adm ssc-1-1"/><path d="m397 229-24 2 3-2-2-3 2-3 2-1-2-1 3-2v-2l1-2-1-2h2l-1-3h2l15-1-1-3h3l13-1 12-1 20-2 22-3v3l-2 1-1 3h-3l-3 3v-1l-3 2-1 2-2 1-3 3h-3l-2 3v1l-3 2v3l-14 2-29 2Z" id="Tennessee" class="adm ssc-1-1"/><path d="m157 124 5-34 1-8 4 1 15 2 31 4 18 2-2 27-3 28-51-6-20-3Z" id="Wyoming" class="adm ssc-1-1"/><path d="m533 131 1-2 1 1Zm3-33v10l2 10 1 1-2 2 1 2-1 2-2 2v-4l-9-3-3-1-2-5h-2l-1-1-44 9-1-4 6-5v-2l2-2-1-2-2-1v-3l5-2 7-1 2 1 4-2h2l3-2 2-3 2-1-1-3 1-1-3-2v-2l3-3 1-2 4-6 4-3 6-1 8-2 1 5 1 2 1 3-1 3 2 3v2l2 1Zm4 26 3-2 5-2 2-2-1 3h1l-10 6-4 2h-1l1-3Zm14-6-3 3h-1l2-3Z" id="New York" class="adm ssc-1-4"/><path d="M324 205h-40l-19-1-21-1 2-42 71 2 1 2h3v1l-2 4 2 2 1 2 2 2Z" id="Kansas" class="adm ssc-1-1"/><path d="m-12 356 1 1Zm-2 2-1-1h1l1 1Zm0-3Zm-1 0Zm-3-1h1v-1l1 1h-1Zm-3-4Zm-6-4 1 1h-1Zm1-1v-1h-2v-1l2 1Zm153 2h1-1Zm-1 0v-1h1v1Zm-3 1h1v1Zm-3-6 1-1 1 1h-1Zm1 4Zm0 1Zm0 0Zm-1-3v-1 1h-1Zm0-2 1 1h1l1 1 1 1h-1v1-1l2 1h-1 1v1l1 2h-1v-1h-1v-1h-3l1-1v-1l-1 1v-2l-1-1h-1v-1Zm3 5v1-1Zm-1 0 1 1 1 1h-2v-2Zm0 0-1 1v-1Zm-1-2h-1Zm0 0Zm-1 1Zm-1-1Zm-1 0Zm-1-5 1 1v2l1 1-1-1v1l-1-1h1l-1-1-1-1Zm1-1h1l1 1v1l-1-1 1 1v1h-1l-1-2h-1v-1Zm2 1 1 1Zm-4-3h1l-1 1h1-1v2l-1-1v-1l-1-1v-2l-1-1 1 1h1l1 1v1l-1-2v1Zm-3 2v-1l1 1 2 3 1 2-1-1-1-1h-1v-1l-1-1v-1Zm-1 1 1 1Zm0 0Zm-3-3h1v1-1Zm3-1h1l1 1h-2 2v1h-2l1 1h-2v-1h-1v-2h1v-1h1Zm-24-4h1v-1Zm-4-2 1-1-1 1Zm-1 0h1l-1 1v-1Zm-2-1Zm1 2-1 2-1 1 1-2Zm-2 0v-1l1 1h-1Zm0-2Zm0 4Zm-1-2Zm1 1Zm-1 1Zm-5 3Zm-3 6Zm-1-11h1Zm0 7Zm-3 4 1 1Zm1-1h1-1l1-1 1 1h1l-1 1h-1v1h-1l-1-1Zm1-1h1-1Zm-2-4Zm-2 14v-1 1Zm0 0Zm-2 0h1Zm1 0Zm0-4v-1l1-1 1 1v1-3l1 1h1v-1h-1 2l-1 1h1v-1l1 1h-1v1h1v1l-2-1 1 1h-1l-1 1v1l-1 1h-1l1-2-1 1v-1 1h-1v-2Zm3-2v-1Zm1 3-1 1v-1h1Zm-7 6Zm-4-3Zm-6 7Zm-1 0Zm0-1Zm-2 1v-1l1-1v2Zm0-2Zm0 0Zm-1 1v-1h1Zm1-17 1-1-1 1Zm-4 16Zm-1 2-1-1h1Zm4-42Zm0-1Zm-6 44Zm-4-3h2l1 2h-3l-1 1h-1v-1h1l1-2Zm-3 4Zm-1 0Zm0-1v1Zm-1 1-1-1h1l1 1Zm-1 1Zm7-29h-1l-1 1v-1h-1l-1-1v-1h1l1-1 1 1h1v1Zm-11 31-1-1h2v-1h1l-1-1h3l-1 1h1l-1 1h-2Zm75-32 3 2 1 1 1-1h1v-3h1l1-1 1 1 1 1h1l1 1 1 1 2 1h-1l1 1 3 2 1 1v1h1v1h1v1h4v1l1-1 1 1v2l1 1v2l-1 1h-1v-1h-1l1-1-1-1v-1l-1-1-2 1h1v2h-1v-4l-1 1-1-1v-1h-2v-1h-2v-2h-1v-1h1-1l-2-1v-1h-2v-1l-1-1-1-1-1-1 1 1v1l1 1 1 2h-1v-1l-1 1v-1l-2-1h-2 1l1 1 1 1-1 1v-1 1l-1-1h-2l-1-1-1-1h-2l-1-1h-1v-3l-1 1-1 1h-2v-1l-1 1-2-1h-1l-2 1h-2v-1h-1v-1l-1 1h-1v-1h-1v-1l-1 1v-1h-1l1-1-1 1v-1l-1 1h-2l1-1v-1l-1 2v-1 1l-1 1h1l1 1-1 1 1 1h-1v1-1l-1 1h-2v1h-1l-1 1-1 1v1-1l-1 1h-2l1-1h1l1-2-1 1-1-1v-1l1-1v-3l1-1h1l1 1v-1h2-2v-2h1-1v1h-3v1h-1v1l-1 1-1 1h1l-1 1h-1l1 1-1 1h-1 1v1h-2 1-1v1h-1v2h1l1 1v1h-2v2l-1 1h-1l-1 1h-1v1h-1l-1 1v2l-1-1v1l-1 1v-1l-1 1-1 1v-1 1h-1l-1 1h1l-1 1h1-3l-1 2v-1h-2v1h-3v-1l-1 1v1h-1 1-1v1l-1-2v2h-1v-1h-1l1 1h-1v-1l2-1 1-1 1-1h3v1-1h1v1-1l1-2 1-1h1l1-1h1v-1l1-1h1l1-1v-3h1v-2l1-1v-1l-1 1h-3v-1l-1 1 1 1h-1l-1-2h-1l-1-1h-1v1h-2v1h-1v-2l1-1h-1v-1l1-1-1-1v-2h-1v1h-4v-1l-1-1-1-1 1-1h-1l1-1h2v1h1l-1 1h1v-1l-1-1h-2v-1l-1-1v1-1l-1-1h1l-1-1h1l-1-1h1v-2l2-1h1v-2h1v-1h1l1 1h1l1-1 1-1h2l1-1v-2l-1-1v-1l1 1v-2h-2l-1 1v1h-1v-2l-1 1h1-1l-2-1h-1v1l-1-1h-2v-3l1-1-2-1-1-1h1v-1h1l1-1h1l1 1-1-1 1-1h4l-1 2 2 1v-1l1 1h1l1-1h1l-1-1h-1v-1h-1v-1h1v2h2v1h1l1-1h-1l-1-1-1 1v-1h-1l1-1v-1h-2l-2-1v-2l-1-1-1-1-1-1v-1h-1v-1h1v-2l1 1h2l1-1h1l1-1v-2l1-1 1-1h2l1-1h1v1-2l1-1v1h2l1-1 1-1h2v1h-1v1h1v-1h2l-1 1h4v1h1v1h2l1-1h1l1 1h2l1 1v-1h2l1 1h1l2-1h1l1 1h1l1 1v-1h1l8 45h1l1-1 1 1v-1l2-1v2Zm24 12v1l1 1v2-1l-1 1-1-1v-2Zm0 4h-1v-1Zm-3-4h-1v-1h1l1 1Zm0 0v1h-1v-2 1Zm-8-8-1 1v-1Zm-29-4Zm-6-2-1 1v-1Zm-1 1Zm1 3h-1Zm-5 3Zm-51 26 1-1h1v1h-2v1l-2 1 1-1v-1h1Zm-4 1Zm4-17h1-1Zm-4 17h-1Zm-1 0Zm-1 0Zm5-20 1-1-1 1Zm-7 21 1-1v1Zm-1 0Zm13-52v-1l1 1h2v1l1 1 2 1h-2v1l-1-1v-1l-1-1h-2Zm-17 52 1-1v1Zm11-38-1-1ZM8 363h2-3v-1l1 1Zm-2-1H3h2l1-1h1v1Zm-5-1Zm0-1v1Zm0 2Zm-3 0v-1l1-1v1h1l-1 1Zm2-1Zm-4 0h1l1-1-1 1Zm-1-2 1 1h-1v-1Zm-2 0Zm-1 2Zm-1 0Z" id="Alaska" class="adm ssc-1-1"/><path d="m97 112 30 6-12 60-1 9-2 11-3 2-1-2h-4l-1 8v5l-1 2-6-9-9-14-13-19-9-15-8-11 11-40 13 3Z" id="Nevada" class="adm ssc-1-3"/><path d="M384 203h-2l-2-4 1-2-1-3-4-4-1 1-5-5v-2l1-3 1-3-4-2-1 1h-1l-1-5-4-3-3-3-1-4-1-3 1-2 1-3 2-1v-2l1-2v-2l-1-2v-3h4l3-2v-2l2-1v-5l-3-1-1-2-2-2 19-1 10-1v3l2 3 2 5 3 33-1 3 2 4-4 9-1 1v4l-1 2 1 3-4 2 1 3-1 1-5-2h-1l-1 3Z" id="Illinois" class="adm ssc-1-4"/><path d="m544 96-8 2-2-11-2-1v-2l-2-3 1-3-1-3-1-2-1-5 17-5v4l1 2-1 4-2 1v7l-1 4 1 6v4Z" id="Vermont" class="adm ssc-1-4"/><path d="m162 90-2-4h-1l-1 2-3-1h-3l-1-1-2 2-3-1-1 1-2-1v-4l-3-3 1-2-1-1-2-5 1-2-2-2-2 2-2 1-2-2 1-3 2-1-1-2 1-3 2-5-2-1v-1l-3-2v-1l-2-5-2-1-2-3 1-3-2-4 3-14 40 8 18 2 51 6-4 42-1 13-18-2-31-4-15-2-4-1Z" id="Montana" class="adm ssc-1-1"/><path d="m312 155-1-2v-2l-1-4v-4l-2-1 1-4-1-2-1-1-2-6-2-4 2-5-1-2 1-3 52-1v2l2 1-1 2 1 5 4 1v2l2 2 1 2 3 1v5l-2 1v2l-3 2h-4v3l1 2v2l-1 2v2l-2 1-1 3-3-3-16 1h-13Z" id="Iowa" class="adm ssc-1-5"/><path d="m453 223 4-1 4-3 15-1 3 2v2l13-2 15 11-4 2-2 4v4l-4 4-1 2-3 4-3 2h-3l1 2-4 5-2-1-2-4-3-2-2-5-2-1-3-3v-2l-4-1-1-2-3-2-3-3-2-4h-2l-4-2v-2Z" id="South Carolina" class="adm ssc-1-1"/><path d="m559 90-2 1-2 3-11 2-1-1v-4l-1-6 1-4v-7l2-1 1-4-1-2v-4l1-4 2-1 3 9 5 17 4 3Z" id="New Hampshire" class="adm ssc-1-5"/><path d="m168 195-11 78-24-3-12-7-28-17 2-2 2-1 1-3-2-1 1-5 2-1 1-6 2-2 4-1-2-3-1-4-1-3v-1l1-2v-5l1-8h4l1 2 3-2 2-11Z" id="Arizona" class="adm ssc-1-1"/><path d="m510 160-1-2v-1l2 2Z" id="District of Columbia" class="adm ssc-1-6"/><path d="m524 143 5-6v-1l-3-2-2-2-1-3 1-1-1-2 3-6 9 3v4l-1 2-1 2h3l1 2v8l-2 3v2l-2 2v4l-2 2v-4h-3l-5-2v-2Zm12 1Zm0 1Z" id="New Jersey" class="adm ssc-1-4"/><path d="m529 167-2 1-3 1 1-2-2-1 1-1-5-1-1-1v-2h3l-4-2 1-5h-1v-3l2-1v-3l-3 4h-1v2l1 3-1 2 1 5 1 1 2 5-3-2h-4l-1-2-2 1-1-2 1-1 1-3 1-1-2-2v1l-5-2v-1l-3-1-2-3-3-1-3 2v1l-3-1-2 3h-1l-4 4-1-7 38-7 5 17 6-2 1 2-2 2Z" id="Maryland" class="adm ssc-1-4"/><path d="M575 66Zm-1 3Zm-14 18-4-3-5-17-3-9 2 1 1-6 2-2 1-3-2-3 2-4-1-4 4-12h2l1 2 1 1 5-4 6 2 4 15 1 4h4v1l1 3 2 2 1-1 2 2-1 1 2 1-1 3-1-1-2 3h-3l1 2-2 2-1-2-4 3 1 2h-3v-3l-2 2 1 4-1 3-2-1-1 3h-2l-1-1 1 3-1-1-3 1 1 3-2 1v3l-1 1Zm17-24h2l-2 1Z" id="Maine" class="adm ssc-1-4"/><path d="m194 355-2-4 3-4-1-2 1-1 3 2 5 2 2 3 4 3-3 3-3 1-3 2-2 3-3-2Zm-10-20 1-1 2 2 3-1 3 2-1 2-4 1-1-3Zm1 6Zm-6-6 4 2-2 1Zm3-2h-6l1-2 7 1Zm-15-9 2 4 3 2-2 1-2-1h-2l-2-4h2Zm-16-5-1 2-1 1-5-1 1-3 2-1h3Zm-13 3 3-2-2 3Z" id="Hawaii" class="adm ssc-1-4"/><path d="m520 145 2-2h2l-2 3 1 2 2 2 1 3 5 4v3l-6 2Z" id="Delaware" class="adm ssc-1-4"/><path d="m560 107 1 2-1-2Zm0 1Zm-7-4 4-1 1 3 2 1h-2v5l-3 1v-1Z" id="Rhode Island" class="adm ssc-1-4"/><path d="m461 187-4 4-4 2-1 4-2 1v1l-6 3-20 2-12 1-13 1h-3l1 3-15 1v-2l2 1v-7l1-3h1l5 2 1-1-1-3 4-2-1-3 1-2 2-1 5-1 3 2 1-2 2-1 3 1v-2l2-2 1 1h4v-2l2-2v-2l2-2v-2h3l3-2-1-3 1-1 3-1 2 2 2 2h3l3 2 1-1 3 1 4-3v2l3 2v4l3 2 2 4Zm-81 23h1-1Z" id="Kentucky" class="adm ssc-1-1"/><path d="m469 141-1 2 1 3-1 4v6l-3 4h-3l-1 2h-1l-1 6-2-2-1 4v2l-1 3h-3l-3-2v-2l-4 3-3-1-1 1-3-2h-3l-2-2-2-2-3 1-2-17-2-19 13-2 5 2 2-1 1 1-2 1h5l4-2h3l4-5 7-4Z" id="Ohio" class="adm ssc-1-0"/><path d="M397 85Zm-35-20Zm-2 1Zm-1 0Zm0 2Zm3 3 2 1 1 2 10 2 4 1 6 1v2l4 1-1 5h2v2l1 1v2h-2l-2 6 3-1 1-3 2-1 1-4 3-2-1 3-2 4-1 4v5l-1 1-1 3 1 3-2 6 1 5 1 1v4l-10 1-19 1v-2l-4-1-1-5 1-2-2-1v-6l-3-3h-1l-3-3-1-2-2-1-2-2h-1l-3-2v-7l1-3-3-1 1-2 1-3 4-2v-9h4l7-3 2-1 1 1-1 2v2l2-1Z" id="Wisconsin" class="adm ssc-1-4"/><path d="m110 58 1 3 2 1v2l-5 8-1 3h-2l-2 3-1 3 3 1v1l-2 5-6 24-16-4-13-3-10-3-14-4-17-5-1-2v-4l1-3v-3l1-2 6-10 5-10v-2l4-8 2-7 2-3h4v2h3l1 2v6l4 3 5-1h2l3 2v1l6-1 1 1 3 1 2-1h10Z" id="Oregon" class="adm ssc-1-4"/><path d="m304 81-42-1-30-2 4-42 31 1 31 2 1 4v8l2 7 1 8v5l1 3 1 2Z" id="North Dakota" class="adm ssc-1-1"/><path d="m373 231 1 1-3 1 1 2-2 2 1 2-2 1-2 4v1l-2 1 1 3h-1v1l-1 2 1 1 1 5-1 1-33 1v-7h-4l-1-1v-25l-2-15 49-2 1 3-4 4h8v2l-3 2 2 1-2 1-2 3 2 3Z" id="Arkansas" class="adm ssc-1-1"/><path d="m403 134 20-2 1 1 2 19 2 17-1 1 1 3-3 2h-3v2l-2 2v2l-2 2v2h-4l-1-1-2 2v2l-3-1-2 1-1 2-3-2-5 1-2 1v-4l1-1 4-9-2-4 1-3-3-33 2 1 2-1Z" id="Indiana" class="adm ssc-1-1"/><path d="M305 115V90l-2-2-2-2 3-3v-7l-1-2-1-3v-5l-1-8-2-7v-8l-1-4h19v-5l3 1 2 8 4 1h3l1 2 3-1 1-1h3l3 1v1h2l1 3 1-2 2 1 3 1 2 2h3l3-3 1 2h6l2 1h3l-3 2-6 2-3 3-7 7-4 4 1 1h-2v9l-4 2-1 3-1 2 3 1-1 3v7l3 2h1l2 2 2 1 1 2 3 3h1l3 3v4Z" id="Minnesota" class="adm ssc-1-4"/><path d="m536 108 17-4 2 8v1l-5 3-5 1h-1l-1 2-3 1-2 3-1-2 2-2-1-1Z" id="Connecticut" class="adm ssc-1-4"/></g><g id="United States of America-img" style="pointer-events:none;will-change:opacity" class="country-img"><g image-width="100%" image-height="100%" image-class="contour-to-dup glow-img" image-filter-name="dksegbzwd--secondGlow" class="hidden-after"><path d="m400 293-2 1h-3l-1-1-5 2-2 2-3 1-5-3h-1l-2 2v3h5l1-2 2 1-1 1 3 1 1-2 2 2-3 3-1 2 2 2h4l1 4v1l-4-3-4-1-1-2-2 1v3l-2 2-1-3-2-1-2 1-1 3h-2l-1-1-4-1 1-1-1-2h-3l-1-3h-3v-1l-4 1 1 2-3 1-3-1-7-2h-3l-5 1-1-1 2-1-1-2-1 3 1 1-3 1-8 4 3-3-3 1 1-3h-3l-1 2 1 1 1 3-3 2-1 2-2 2-3 1-4 1-3 2v-2l-4 2-2-2 4 4-3 1h-2v2l-3 1v-1l-2 2h2l-2 3-4-1 3 3-2 5-1-1-2 2h3l-1 3-1 1 2 8 1 2 1 2v2l-3 1-2-2-8-1-2-2h-3l-2-2-3-1-2-6-2-2v-7l-2-2-3-2-1-3-3-4-1-3-2-2-2-4v-3l-4-5-3-2-2-3-3 1-4-1-3-1-1 1h-4l-1 3-1 4-2 1-2 2-3-1-4-3-3-1-2-3-3-2-2-4v-4l-2-3v-3l-3-3-2-1-2-3-2-2-2-3-3-2-2-3-1-1-20-2v6l-34-5-12-7-28-17 2-2-28-4 1-2h-2l1-6-2-4-2-3-4-4h-1l-1-1v-2l-1-2h-3l-4-3v-2l-3-3h-3l-1-1-6-2-1-2 1-3 1-4-2-3 1-1-3-5h-1l-3-9-1-2v-4h2l1-2-1-3h-2l-2-4 1-2-1-3 1-3h1v3l2 2v-3l-1-2v-2l2-1-3-2-1 4-2-3-2-1 1-2-1-4-1-2-3-7 1-1v-4l1-3v-4l-1-4-2-3v-3l5-5v-2l3-5v-4l-1-1 2-3-1-2v-4l1-3v-3l1-2 6-10 5-10v-2l4-8 2-7 1-4 2 2 3-1-2-1h-2l-2-2h2l1-3 1-1-2-1v-2h3l-2-2-1 1 1-5-1-1 1-5-1-3v-3l2-3 4 4 5 3h3l1 1h2v3l-6 6 3-2 2-1 2-2v2h-1v4l-2 2-1-1v3l2-2h2v-4l1-2 2-2v-4l-2 1 1-2h1l-2-3 2 1 1-2V8l-2 1V6l1-1 7 2 32 8 32 7 28 6 18 2 35 4 35 3 31 1 31 1v-5l3 1 2 8 4 1h3l1 2 3-1 1-1h3l3 1v1h2l1 3 1-2 2 1 3 1 2 2h3l3-3 1 2h6l2 1h3l-3 2-6 2-3 3-7 7-4 4 2 1 8-3 2-1 1 1-1 2v2l2-1 2 1 4-2 2-2h4l7-7 1-1 3-2h4l-5 4-1 3v3l2-2h5l4 5 3-1 3 1 1-1 4-3 6-1 4-1 1 4 5-1 3-1 1 4-2 1h3l1 2-4 1-3-1-1 3-2-2-4-1h-1l-1 2-3 1h-3l-1 3h-2v2h-1l1-3h-2l-2 2v-1l-5 9v3h-2l-2 6 3-1 1-3 2-1 1-4 3-2-1 3-2 4-1 4v5l-1 1-1 3 1 3-2 6 1 5 1 1v8l2 2 2 5 3 1 3-2 3-3 2-5 1-6-1-5-4-7 1-4-1-3 2-4v-5h1v-3l3-1 1-3 1 2-1 3 1 1 1-3v3l1-3-1-4 2-2 2-1-2-2 1-2 3-1 2 1h3l1 2h2l4 1 3 4h-1l-1 2h2v3l1 5-2 2-1 3h-2v4l2 2 2-3 2-3 3-2 2 1 1 2 3 8 1 4v5h-1l-1-1-1 1-1 4-1 1-1 4-2 3 1 1 4 2 2-1 1 1-2 1h5l4-2h3l4-5 9-5 6-5 3-3 2-1v-2l2-2-1-2-2-1v-3l5-2 7-1 2 1 4-2h2l3-2 2-3 2-1-1-3 1-1-3-2v-2l3-3 1-2 4-6 4-3 6-1 10-3 8-2 7-2 1-4h2l1-1 1 1 1-6 2-2 1-3-2-3 2-4-1-4 4-12h2l1 2 1 1 5-4 6 2 4 15 1 4h4v1l1 3 2 2v-1h1l2 2-1 1 2 1-1 3-1-1-2 3h-3l1 2-2 2-1-2-4 3 1 2h-3v-3l-2 2 1 4-1 3-2-1-1 3h-2l-1-1 1 3-1-1-3 1 1 3-2 1v3l-2 7 2 3h1l-2 2-1 3h3l2 2v2h2v2h3l2-1 1 1-3 1-3 3-1-2-2 1v2l-2 1-1-2-2-1v5l-3 2-3 1-2 1-5 1h-1l-1 2-3 1-2 3-3 5-1 1-1 2h3l1 2v8l-2 3v2l-2 2v4l-2 2v-4h-3l-5-2 2 2 1 3 5 4 1 3-2 4-1 4-4 12v-5l2-7-3 1 1-2-2-1 1-1-5-1-1-1v-2h3l-4-2 1-5h-1v-3l2-1v-3l-3 4h-1v2l1 3-1 2 1 5 1 1 2 5-3-2h-4l-1-2-2 1-1-2v2l1 1 2-1 2 2h3l1 2 4 1v3l1 4-2 2 3 2-1 2-3-2v1l2 2 2-2h3l4 9-3-5v2l2 1 2 4-2-1-5 4h-3l1 1 6-2 1 4v-3l2-1 2 3-3 6-2 1-2-1-2 1-5-1 6 1v4l-2 2h1l2-1h3l-2 4-6 1-3 3-3 3-1 3-1 5-1-1-4 1-3 2-4 5v4l-4 4-1 2-3 4-3 2h-3l1 2-4 5v2l-2 1v5l-2 5v2l1 6 5 12 4 7 7 8h-2v2l-1-3-1-1 3 6 4 7 2 3 3 5 1 3 1 3v9l-2 6 1 2-2 2-4 1-3 2-1-3 2 1v-2h-2l-4-5-3-1h-2l-2-7h-2l-2-2v-3l-1-1v2l-2-1-2-2-3-6 2-5h-1l-1-1h-2l2 1-1 3-2-2 1-8-1-7-2-3h-3l-3-3-2-1v-2l-2-1-2-2-4-2-4 1v2h-2l-4 3-5 2v-2l-6-5v1l-2-1-5-2h2l-4-1-1 1-4 1-3-3-1 4-7 2 1-1-2-1v-4h-1l-1 5Zm134-87Zm-3-39Zm-3 7Zm-2 4ZM357 308l1-2 3 1-2 1Zm68-235 3-2 1 2v1Zm-6 3Zm-9 1Zm-1 3 1-2 1 2Zm-3 7Zm-1 2Zm-7-21Zm-26-16 1-1 5-3h2l-2 2-5 3Zm199 58Zm-6 1 2-3 1 2Zm-76 252Zm6-2Zm-2 1Zm0 0Zm-2 1Zm-10-25Zm-43-39Zm43 37ZM62 28Zm-1 1Zm0 0Zm5-12 1 2v1l-2-2 1-2-2-1 3-2v2h-1Zm-2-5Zm1-4 1 1-1 1Zm-2 1 1 1-2 1ZM47 36Zm17-19Zm1 7Zm-2 3Zm257 288 3-3 2-1Zm-28 29Zm0-3 1-2 1-4Zm10-14-3 2v-1Zm-3 2Zm-4 29h-1 1ZM54 224l2 1v2Zm-2 6 2 3-1-1Zm-10-6Zm1-11 2 1-4-1Zm-4 1-1-2h1Zm-4-3Zm498-80 1-2 1 1Zm7-7 3-2 5-2 2-2-1 3h1l-10 6-4 2h-1l1-3Zm14-6-3 3h-1l2-3ZM-12 356l1 1Zm-2 2-1-1h1l1 1Zm0-3Zm-1 0Zm-3-1h1v-1l1 1h-1Zm-3-4Zm-6-4 1 1h-1Zm1-1v-1h-2v-1l2 1Zm153 2h1-1Zm-1 0v-1h1v1Zm-3 1h1v1Zm-3-6 1-1 1 1h-1Zm1 4Zm0 1Zm0 0Zm-1-3v-1 1h-1Zm0-2 1 1h1l1 1 1 1h-1v1-1l2 1h-1 1v1l1 2h-1v-1h-1v-1h-3l1-1v-1l-1 1v-2l-1-1h-1v-1Zm3 5v1-1Zm-1 0 1 1 1 1h-2v-2Zm0 0-1 1v-1Zm-1-2h-1Zm0 0Zm-1 1Zm-1-1Zm-1 0Zm-1-5 1 1v2l1 1-1-1v1l-1-1h1l-1-1-1-1Zm1-1h1l1 1v1l-1-1 1 1v1h-1l-1-2h-1v-1Zm2 1 1 1Zm-4-3h1l-1 1h1-1v2l-1-1v-1l-1-1v-2l-1-1 1 1h1l1 1v1l-1-2v1Zm-3 2v-1l1 1 2 3 1 2-1-1-1-1h-1v-1l-1-1v-1Zm-1 1 1 1Zm0 0Zm-3-3h1v1-1Zm3-1h1l1 1h-2 2v1h-2l1 1h-2v-1h-1v-2h1v-1h1Zm-24-4h1v-1Zm-4-2 1-1-1 1Zm-1 0h1l-1 1v-1Zm-2-1Zm1 2-1 2-1 1 1-2Zm-2 0v-1l1 1h-1Zm0-2Zm0 4Zm-1-2Zm1 1Zm-1 1Zm-5 3Zm-3 6Zm-1-11h1Zm0 7Zm-3 4 1 1Zm1-1h1-1l1-1 1 1h1l-1 1h-1v1h-1l-1-1Zm1-1h1-1Zm-2-4Zm-2 14v-1 1Zm0 0Zm-2 0h1Zm1 0Zm0-4v-1l1-1 1 1v1-3l1 1h1v-1h-1 2l-1 1h1v-1l1 1h-1v1h1v1l-2-1 1 1h-1l-1 1v1l-1 1h-1l1-2-1 1v-1 1h-1v-2Zm3-2v-1Zm1 3-1 1v-1h1Zm-7 6Zm-4-3Zm-6 7Zm-1 0Zm0-1Zm-2 1v-1l1-1v2Zm0-2Zm0 0Zm-1 1v-1h1Zm1-17 1-1-1 1Zm-4 16Zm-1 2-1-1h1Zm4-42Zm0-1Zm-6 44Zm-4-3h2l1 2h-3l-1 1h-1v-1h1l1-2Zm-3 4Zm-1 0Zm0-1v1Zm-1 1-1-1h1l1 1Zm-1 1Zm7-29h-1l-1 1v-1h-1l-1-1v-1h1l1-1 1 1h1v1Zm-11 31-1-1h2v-1h1l-1-1h3l-1 1h1l-1 1h-2Zm75-32 3 2 1 1 1-1h1v-3h1l1-1 1 1v1h2l1 1 1 1 2 1h-1l1 1 3 2 1 1v1h1v1h1v1h4v1l1-1 1 1v2l1 1v2l-1 1h-1v-1h-1l1-1-1-1v-1l-1-1-2 1h1v2h-1v-4l-1 1-1-1v-1h-2v-1h-2v-2h-1v-1h1-1l-2-1v-1h-2v-1l-1-1-1-1-1-1 1 1v1l1 1 1 2h-1v-1l-1 1v-1l-2-1h-2 1l1 1 1 1-1 1v-1 1l-1-1h-2l-1-1-1-1h-2l-1-1h-1v-3l-1 1-1 1h-2v-1l-1 1-2-1h-1l-2 1h-2v-1h-1v-1l-1 1h-1v-1h-1v-1l-1 1v-1h-1l1-1-1 1v-1l-1 1h-2l1-1v-1l-1 2v-1 1l-1 1h1l1 1-1 1 1 1h-1v1-1l-1 1h-2v1h-1l-1 1-1 1v1-1l-1 1h-2l1-1h1l1-2-1 1-1-1v-1l1-1v-3l1-1h1l1 1v-1h2-2v-2h1-1v1h-3v1h-1v1l-1 1-1 1h1l-1 1h-1l1 1-1 1h-1 1v1h-2 1-1v1h-1v2h1l1 1v1h-2v2l-1 1h-1l-1 1h-1v1h-1l-1 1v2l-1-1v1l-1 1v-1l-1 1-1 1v-1 1h-1l-1 1h1l-1 1h1-3l-1 2v-1h-2v1h-3v-1l-1 1v1h-1 1-1v1l-1-2v2h-1v-1h-1l1 1h-1v-1l2-1 1-1 1-1h3v1-1h1v1-1l1-2 1-1h1l1-1h1v-1l1-1h1l1-1v-3h1v-2l1-1v-1l-1 1h-3v-1l-1 1 1 1h-1l-1-2h-1l-1-1h-1v1h-2v1h-1v-2l1-1h-1v-1l1-1-1-1v-2h-1v1h-4v-1l-1-1-1-1 1-1h-1l1-1h2v1h1l-1 1h1v-1l-1-1h-2v-1l-1-1v1-1l-1-1h1l-1-1h1l-1-1h1v-2l2-1h1v-2h1v-1h1l1 1h1l1-1 1-1h2l1-1v-2l-1-1v-1l1 1v-2h-2l-1 1v1h-1v-2l-1 1h1-1l-2-1h-1v1l-1-1h-2v-3l1-1-2-1-1-1h1v-1h1l1-1h1l1 1-1-1 1-1h4l-1 2 2 1v-1l1 1h1l1-1h1l-1-1h-1v-1h-1v-1h1v2h2v1h1l1-1h-1l-1-1-1 1v-1h-1l1-1v-1h-2l-2-1v-2l-1-1-1-1-1-1v-1h-1v-1h1v-2l1 1h2l1-1h1l1-1v-2l1-1 1-1h2l1-1h1v1-2l1-1v1h2l1-1 1-1h2v1h-1v1h1v-1h2l-1 1h4v1h1v1h2l1-1h1l1 1h2l1 1v-1h2l1 1h1l2-1h1l1 1h1l1 1v-1h1l8 45h1l1-1 1 1v-1l2-1v2Zm24 12v1l1 1v2-1l-1 1-1-1v-2Zm0 4h-1v-1Zm-3-4h-1v-1h1l1 1Zm0 0v1h-1v-2 1Zm-8-8-1 1v-1Zm-29-4Zm-6-2-1 1v-1Zm-1 1Zm1 3h-1Zm-5 3Zm-51 26 1-1h1v1h-2v1l-2 1 1-1v-1h1Zm-4 1Zm4-17h1-1Zm-4 17h-1Zm-1 0Zm-1 0Zm5-20 1-1-1 1Zm-7 21 1-1v1Zm-1 0Zm13-52v-1l1 1h2v1l1 1 2 1h-2v1l-1-1v-1l-1-1h-2Zm-17 52 1-1v1Zm11-38-1-1ZM8 363h2-3v-1l1 1Zm-2-1H3h2l1-1h1v1Zm-5-1Zm0-1v1Zm0 2Zm-3 0v-1l1-1v1h1l-1 1Zm2-1Zm-4 0h1l1-1-1 1Zm-1-2 1 1h-1v-1Zm-2 0Zm-1 2Zm-1 0Zm545-217Zm0 1Zm39-79Zm-1 3Zm3-6h2l-2 1ZM194 355l-2-4 3-4-1-2 1-1 3 2 5 2 2 3 4 3-3 3-3 1-3 2-2 3-3-2Zm-10-20 1-1 2 2 3-1 3 2-1 2-4 1-1-3Zm1 6Zm-6-6 4 2-2 1Zm3-2h-6l1-2 7 1Zm-15-9 2 4 3 2-2 1-2-1h-2l-2-4h2Zm-16-5-1 2-1 1-5-1 1-3 2-1h3Zm-13 3 3-2-2 3Zm422-214ZM397 85Zm-35-20Zm-2 1Zm-1 0Zm0 2Z" fill="none"/></g></g><g id="svg-map-legend"><g id="United States of America ADM1-legend-group" transform="translate(514 227)"><text style="stroke-width:0;font-size:20px;font-weight:553" id="United States of America ADM1-legend-title" x="0" y="0" transform="translate(37 -38)"><tspan x="0" dx="0em" dy="0" id="United States of America ADM1-legend-title-0">Political</tspan><tspan x="0" dx="1.333em" dy="1.1em" id="United States of America ADM1-legend-title-1">    party</tspan></text><g><path pathLength="1" fill="#a9c0deff" stroke="#000" d="M98 0h20v15H98z"/><text text-anchor="start" dominant-baseline="middle" x="6.35" y="7.5" style="font-size:12px;stroke:rgba(255,255,255,.506);stroke-width:0">Light Democrat</text></g><g transform="translate(0 20)"><path pathLength="1" fill="#306596ff" stroke="#000" d="M98 0h20v15H98z"/><text text-anchor="start" dominant-baseline="middle" x="36.95" y="7.5" style="font-size:12px;stroke:rgba(255,255,255,.506);stroke-width:0">Democrat</text></g><g transform="translate(0 40)"><path pathLength="1" fill="#667fafff" stroke="#000" d="M98 0h20v15H98z"/><text text-anchor="start" dominant-baseline="middle" x=".75" y="7.5" style="font-size:12px;stroke:rgba(255,255,255,.506);stroke-width:0">Heavy Democrat</text></g><g transform="translate(0 60)"><path pathLength="1" fill="#eaa9a8ff" stroke="#000" d="M98 0h20v15H98z"/><text text-anchor="start" dominant-baseline="middle" x="0" y="7.5" style="font-size:12px;stroke:rgba(255,255,255,.506);stroke-width:0">Light Republican</text></g><g transform="translate(0 80)"><path pathLength="1" fill="#cc4731ff" stroke="#000" d="M98 0h20v15H98z"/><text text-anchor="start" dominant-baseline="middle" x="30.633" y="7.5" style="font-size:12px;stroke:rgba(255,255,255,.506);stroke-width:0">Republican</text></g><g transform="translate(0 100)"><path pathLength="1" fill="#eddc4eff" stroke="#000" d="M98 0h20v15H98z"/><text text-anchor="start" dominant-baseline="middle" x="32.6" y="7.5" style="font-size:12px;stroke:rgba(255,255,255,.506);stroke-width:0">Undecided</text></g></g></g></svg><rect x="0" y="0" id="frame" pathLength="1" width="650" height="369" rx="0"/><style>#dksegbzwd-,#dksegbzwd-  #canvas { display: block; height: auto; }#dksegbzwd- text { font-family: system-ui, -apple-system, BlinkMacSystemFont, "Segoe UI", Roboto, Oxygen, Ubuntu, Cantarell, "Open Sans", "Helvetica Neue", sans-serif; }#dksegbzwd- #paths &gt; path { stroke: rgba(124, 73, 14, 0.627); stroke-dasharray: 5px; stroke-width: 2px; fill: none; }#dksegbzwd- #outline { pointer-events: none; }#dksegbzwd- #graticule { pointer-events: none; fill: none; stroke: #777777; stroke-width: 0.5px; stroke-opacity: 0.5; }#dksegbzwd- .country { stroke-width: 4px; fill: #f3efec; stroke-linejoin: round; }#dksegbzwd- .country:hover { fill: #f9f2eb; }#dksegbzwd- .adm { stroke: #c4b8a3; stroke-width: 1px; fill: rgba(255, 255, 255, 0.816); stroke-linejoin: round; }#dksegbzwd- .adm:hover { stroke: #fdfdfb; fill: #ecd6b6; stroke-width: 2px; }#dksegbzwd- #tooltip { position: absolute; }#dksegbzwd- path.ssc-1-0{fill:#eddc4eff;}
#dksegbzwd-             path.ssc-1-0:hover{fill:#ffec54;}#dksegbzwd- path.ssc-1-1{fill:#cc4731ff;}
#dksegbzwd-             path.ssc-1-1:hover{fill:#db4c35;}#dksegbzwd- path.ssc-1-2{fill:#eaa9a8ff;}
#dksegbzwd-             path.ssc-1-2:hover{fill:#fbb5b4;}#dksegbzwd- path.ssc-1-3{fill:#667fafff;}
#dksegbzwd-             path.ssc-1-3:hover{fill:#6e88bc;}#dksegbzwd- path.ssc-1-4{fill:#306596ff;}
#dksegbzwd-             path.ssc-1-4:hover{fill:#346ca1;}#dksegbzwd- path.ssc-1-5{fill:#a9c0deff;}
#dksegbzwd-             path.ssc-1-5:hover{fill:#b5ceee;}#dksegbzwd- path.ssc-1-6{fill:#aaaaaaff;}
#dksegbzwd-             path.ssc-1-6:hover{fill:#b7b7b7;}
    #dksegbzwd- {
        
    }
    #dksegbzwd-, #dksegbzwd- &gt; svg {
        border-radius: 0%/0%;
    }
#dksegbzwd-     #frame {
        fill: none;
        stroke: #b8b8b8ff;
        stroke-width:0px;
    }

.animate-transition path, .animate-transition #graticule, .animate-transition #outline, .animate-transition image, .animate-transition text, .animate-transition #points-labels, .animate-transition #svg-map-legend *, .animate-transition #path-images {
    transition-property: fill-opacity, opacity;
    transition-duration: 1s;
    transition-timing-function: ease;
}
.animate-transition #graticule, .animate-transition #outline {
    transition-delay: 0.5s;
}
.animate path, .animate rect, .animate circle {
    stroke-dasharray: 1 !important;
    fill-opacity: 0 !important;
    stroke-dashoffset: 1;
}
.animate text, .animate image, .animate #points-labels, .animate #path-images, .animate #graticule {
    opacity: 0 !important;
}
.animate #frame{
    animation: dash 3s ease 0s forwards;
}
.animate #land path, .animate #paths path, .animate .country-img path {
    animation: dash 3s ease 0.5s forwards;
}
.animate .country, .animate .adm, .animate #svg-map-legend * {
    animation: dash 3s ease 1s forwards;
}


@keyframes dash {
    from {
      stroke-dashoffset: 1;
    }
    to {
      stroke-dashoffset: 0;
    }
  }#dksegbzwd- #points-labels {pointer-events:none}</style><script>(function(){function e(data){return data.indexOf("http://www.w3.org/2000/svg")&lt;0&amp;&amp;(data=data.replace(/&lt;svg/g,"&lt;svg xmlns='http://www.w3.org/2000/svg'")),`data:image/svg+xml,${data=(data=(data=(data=data.replace(/"/g,"'")).replace(/&gt;\s{1,}&lt;/g,"&gt;&lt;")).replace(/\s{2,}/g," ")).replace(/[\r\n%#()&lt;&gt;?[\\\]^`{|}]/g,encodeURIComponent)}`}function t(t){const o=document.createElementNS("http://www.w3.org/2000/svg","svg");o.setAttribute("xmlns","http://www.w3.org/2000/svg"),o.setAttribute("preserveAspectRatio","none"),o.innerHTML=t.innerHTML;const s=document.createElementNS("http://www.w3.org/2000/svg","image");o.querySelectorAll("path[pathLength]").forEach((e=&gt;{e.removeAttribute("pathLength")})),[...t.attributes].forEach((e=&gt;{if(e.nodeName.includes("image-")){const t=e.nodeName.slice(6);s.setAttribute(t,e.nodeValue)}else o.setAttribute(e.nodeName,e.nodeValue)}));const i=e(o.outerHTML);return s.setAttribute("href",i),s}function o(e,t=!1){Array.from(e.querySelectorAll(".contour-to-dup")).forEach((e=&gt;{if(!e.hasAttribute("filter-name"))return;const o=e.cloneNode();o.setAttribute("href",e.getAttribute("href").replace("fill='none'","")),o.setAttribute("filter",`url(#${e.getAttribute("filter-name")})`),t&amp;&amp;(o.style.opacity=0,setTimeout((()=&gt;{o.style.opacity=1}),0)),e.parentNode.insertBefore(o,e)}))}const s=document.getElementsByTagName("script"),i=s[s.length-1],n=i.parentNode;function a(e=!1){n.querySelectorAll("g[image-class]").forEach((o=&gt;{const s=t(o);o.parentNode.append(s),e?setTimeout((()=&gt;{o.remove()}),500):o.remove()})),o(n,e)}let r;const l=n.querySelector("svg");window.addEventListener("resize",(e=&gt;{l.style.display="none",clearTimeout(r),r=setTimeout((()=&gt;{l.style.display="block"}),300)}));const c=new DOMParser,d=650,v=369,u=n.getScreenCTM().inverse(),m={shapeId:null,element:null};m.element=g({},"",1,1),n.append(m.element),m.element.style.display="none";const p={data:{"United States of America ADM1":{Mississippi:{votes:"32"},"North Carolina":{votes:"32"},Oklahoma:{votes:"32"},Virginia:{votes:"32"},"West Virginia":{votes:"32"},Louisiana:{votes:"32"},Michigan:{votes:"32"},Massachusetts:{votes:"32"},Idaho:{votes:"32"},Florida:{votes:"29"},Nebraska:{votes:"32"},Washington:{votes:"32"},"New Mexico":{votes:"32"},"South Dakota":{votes:"32"},Texas:{votes:"32"},California:{votes:"32"},Alabama:{votes:"32"},Georgia:{votes:"32"},Pennsylvania:{votes:"32"},Missouri:{votes:"13"},Colorado:{votes:"5"},Utah:{votes:"32"},Tennessee:{votes:"32"},Wyoming:{votes:"32"},"New York":{votes:"32"},Kansas:{votes:"32"},Alaska:{votes:"32"},Nevada:{votes:"32"},Illinois:{votes:"32"},Vermont:{votes:"32"},Montana:{votes:"32"},Iowa:{votes:"11"},"South Carolina":{votes:"32"},"New Hampshire":{votes:"32"},Arizona:{votes:"5"},"District of Columbia":{votes:"NaN"},"New Jersey":{votes:"32"},Maryland:{votes:"32"},Maine:{votes:"32"},Hawaii:{votes:"32"},Delaware:{votes:"32"},"Rhode Island":{votes:"32"},Kentucky:{votes:"32"},Ohio:{votes:"32"},Wisconsin:{votes:"32"},Oregon:{votes:"32"},"North Dakota":{votes:"32"},Arkansas:{votes:"32"},Indiana:{votes:"11"},Minnesota:{votes:"32"},Connecticut:{votes:"32"}}},tooltips:{"United States of America ADM1":'&lt;div id="tooltip-preview-United States of America ADM1" style="will-change: opacity; font-size: 14px; padding: 5px; background-color: rgb(255, 255, 255); border: 1px solid rgb(168, 168, 168); max-width: 15rem; width: max-content; border-radius: 7px;" class="svelte-d50t4"&gt;&lt;div&gt;\n    &lt;span style="display: block; text-align:center;"&gt; &lt;b&gt; ${shapeId} &lt;/b&gt; &lt;/span&gt;\n   &lt;span style="font-size: 12px;"&gt; Electoral votes: ${data.votes}&lt;/span&gt;\n&lt;/div&gt;\n    &lt;/div&gt;'}};function g(data,e,shapeId,t,o){if(!data)return;const s=document.createElementNS("http://www.w3.org/2000/svg","foreignObject");s.setAttribute("width",1),s.setAttribute("height",1),s.style.overflow="visible";const i=c.parseFromString(eval("`"+e+"`"),"text/html").querySelector("body");return i.style.position="fixed",s.appendChild(i),s}function h(){m.element.style.display="none",m.element.style.opacity=0}function f(e){const t=e.target.parentNode;if(!t?.hasAttribute?.("id"))return h();const o=n.querySelector("#frame").getBoundingClientRect(),s=d/o.width,i=v/o.height,a=m.element.firstChild?.firstChild?.getBoundingClientRect();let r=(e.clientX-o.left+10)*s,l=(e.clientY-o.top+10)*i,c=1;const u=t.getAttribute("id"),shapeId=e.target.getAttribute("id");if(a?.width&gt;0?(o.right-a.width&lt;e.clientX+10&amp;&amp;(r=(e.clientX-o.left-a.width-20)*s),o.bottom-a.height&lt;e.clientY+10&amp;&amp;(l=(e.clientY-o.top-a.height-20)*i)):shapeId&amp;&amp;u in p.data&amp;&amp;(c=0,setTimeout((()=&gt;{f(e)}),0)),u in p.data)if(shapeId&amp;&amp;m.shapeId===shapeId)m.element.setAttribute("x",r),m.element.setAttribute("y",l),m.element.firstChild.style.position="absolute",setTimeout((()=&gt;{m.element.firstChild.style.position="fixed"}),0),m.element.style.display="block",m.element.style.opacity=c;else{const data=p.data[u][shapeId];if(!data)return void(m.element.style.display="none");const e=g(data,p.tooltips[u],shapeId,s,i);m.element.replaceWith(e),m.element=e,m.shapeId=shapeId,m.element.setAttribute("x",r),m.element.setAttribute("y",l),m.element.style.opacity=c}else h()}n.addEventListener("mouseleave",h),n.addEventListener("mousemove",(e=&gt;{f(e);const t=e.target.parentNode;"path"===e.target.tagName&amp;&amp;"g"===t.tagName&amp;&amp;(void 0===e.target.previousPos&amp;&amp;(e.target.previousPos=Array.from(t.children).indexOf(e.target)),e.target!==t.lastElementChild&amp;&amp;t.append(e.target))})),n.addEventListener("mouseout",(e=&gt;{const t=e.target.previousPos;if(t){const o=e.target.parentNode;o.insertBefore(e.target,o.children[t])}}));const y={root:null,rootMargin:"0px",threshold:.3};n.style.visibility="hidden";let b=!1;function w(e){!b&amp;&amp;e[0].isIntersecting&amp;&amp;(b=!0,setTimeout((()=&gt;{n.style.visibility="visible",n.classList.add("animate"),n.querySelectorAll("path").forEach((e=&gt;{e.setAttribute("pathLength",1)})),setTimeout((()=&gt;{n.classList.add("animate-transition")}),1e3),n.querySelector("#frame").addEventListener("animationend",(()=&gt;{n.classList.remove("animate"),a(!0),n.querySelectorAll("path[pathLength]").forEach((e=&gt;{e.removeAttribute("pathLength")})),setTimeout((()=&gt;{n.classList.remove("animate-transition")}),1e3)}))}),500))}const A=new IntersectionObserver(w,y);A.observe(n)})();</script></svg>