<svg xmlns="http://www.w3.org/2000/svg" id="static-svg-map" width="650" height="369"><defs><pattern id="noise" patternUnits="userSpaceOnUse" width="60" height="60"><path fill="#ffffffff" d="M0 0h60v60H0z"/></pattern><filter id="secondGlow" filterUnits="userSpaceOnUse"><feMorphology in="SourceGraphic" radius=".1" operator="dilate" result="MASK_OUTER"/><feColorMatrix in="MASK_OUTER" type="matrix" values="0 0 0 0 0.17647058823529413 0 0 0 0 0.14901960784313725 0 0 0 0 0.14901960784313725 0 0 0 1 0" result="OUTER_COLORED"/><feGaussianBlur in="OUTER_COLORED" stdDeviation="2.3" result="OUTER_BLUR"/><feComposite in="OUTER_BLUR" in2="SourceGraphic" operator="out" result="OUTGLOW"/><feMorphology in="SourceAlpha" radius=".4" operator="erode" result="INNER_ERODED_A"/><feComponentTransfer in="INNER_ERODED_A" result="INNER_ERODED"><feFuncA type="linear" slope="1000" intercept="0"/></feComponentTransfer><feGaussianBlur in="INNER_ERODED" stdDeviation="0" result="INNER_BLURRED"/><feColorMatrix in="INNER_BLURRED" type="matrix" values="0 0 0 0 0.7686274509803922 0 0 0 0 0.7372549019607844 0 0 0 0 0.7372549019607844 0 0 0 -1 0.5333333333333333" result="INNER_COLOR"/><feComposite in="INNER_COLOR" in2="SourceGraphic" operator="in" result="INGLOW"/><feMerge><feMergeNode in="OUTGLOW"/><feMergeNode in="INGLOW"/></feMerge></filter></defs><svg><g id="outline" style="will-change:opacity;fill:url(#noise)"><path d="M-56-7h718v377H-56Zm23 283h167v90H-33Zm167 37h78v53h-78Z" class="outline"/></g><g id="United States of America ADM1" style="will-change:opacity"><path d="M365 259v-1h-1l1-1 1 1v-3l-1 1v-1l1-2-1 1h-1l1-1v-1 1h-1v-1l1-1-1-1h2v-1l-1 1v-1h1v-1l-1-1 1-1h-1l1-1v1h1l-1-1h1v-2h1-1v-1h1v-1h1-1l1-1v1h1v-1l1-1-1-1h1v-1h-1v-1l1-1v1h1v-1h-2 1v-1 1h1l-1-1h1l-1-1h1v1l1-1 1-1-1-1h10l6-1 8-1v1l1 1v16l-1 3v25l1 7 1 5 1 6v1h-5l-1-1v1h-3l-2 1v-1h-1l1 1-1 1-1 1h-2v-2l-1-1v-1h-1l-1-1v-3l1-1v-2l-7 1h-15 1v-1h-1v-2l1-1v-1h-1l1-1v1-2h1v-1h-1v-1 1h1v-2h2l-1-1-1 1 1-2v1h1v-2l1-1h1-1v-1 1l1-1v-1h-2 1v-1h2v-2h-1l1-1h-2v-1h1l-1-1h1v-1 1h-2v-1h1v-1h-1v-1l1-1v-1h-1v1l-1-1h1Z" id="Mississippi" class="adm ssc-1-1"/><path d="M534 206h1l1-1-1 1Zm-68-7h4l5-1h1l5-1h4l4-1 6-1 5-1 4-1 4-1 7-1h2l2-1 5-1h3l1 1h1v2l1 1 1 1h-1v-1h-1v1l-1-1h-1v-1l-1 1h1l1 1-2 1h-1l-1 1v1h-3v-2h-1v1h1v2h2l2-1v1l1-1 1-1h1v1h1v3h1v-1l-1-1h1l-1-1h1l1-1 1 2v1h1-1v1h1l-1 1h-1v2h-1v2h-1l-1 1-1-1h-2l-1-1h1v-1l-1 1h-1 1v2h-1v-1h-4 1v1h5l1 1-1 1v2l-1 1-1 1-2-1v1h3l1-1h1v-1h1v1h2-1v1l-1 1v2h-1v-1 1l-1-1h-1l1 1h-2l-1 1h-2v1h-1v1l-1 1-1 1-1 1-1 1-1 3-1 1h1l-1 2v2-3 1l-1 1h-2l-2 1h-1v1l-5-3-5-4-1-1-4-3h-2l-7 1-4 1v-2l-2-2-1 1v-1h-2l-6 1h-7v1-1l-1 1h-1l-1 1-1 1-4 1-2 1h-3l-6 1h-2v-4h2l1-1h-1l1-1v-1h1v-1l1-1h3v-1h1l1-1v1-1l1-1h1v-1h2v-2h1v-1l1-1h1v1h1l1-1v-1l1-1h3l1-3h1v-1 1l1-1v-2Zm61-11h1v1h-1Zm1 0h1l1 2v2l1 1 2 2 1 2h-1v-1l-1-1-1-1v-2l-1-1-1-1Z" id="North Carolina" class="adm ssc-1-2"/><path d="m233 202 2 1h13l4 1h18l6 1h48l1 7v3l1 5 1 7v25h-2l-1-1h-1l-1-1-1-1h-1v-1h-1l-1-1v2h-3l-1-1h-1v1l-1-1v1h-4l-1 1h-1v1l-1-1h-1l-1-1h-1 1l-1-1v1h-2l-1-1v-1l-1 1-1 1v2l-1-1v-2h-1v1-1l-1 1h-1v-1h-2v-1h-1v1h-1v1h-1l-1-1v-1h-1v-1l-1-1h1-3v-1l-1 1-1 1-1-2h-1v1h-1v-1h-2v-1h-1v1-1l-1 1-1-1v-1l-1-1v-1h-1v1h-1l-1-1v1h-1l-1-1-1-1v-1h-2l1-6v-21h-11l-3-1h-14l-4-1Z" id="Oklahoma" class="adm ssc-1-1"/><path d="m527 168 2-1v3l-1 1v2l-1 1-1 2h1l-1 1v3h-1v-6l1-2v-1h1-1l1-1v-1h-1 1v-1Zm4-1-1 2v-1l1-1Zm-3 7v1-1Zm-1 15h-3l-5 1-2 1h-2l-7 1-4 1-4 1-5 1-6 1-4 1h-4l-5 1h-1l-5 1h-7l-3 1h-3l-4 1h-5l-3 1h-1l1-1h2v-1l2-1h1v-1l1-1h1v-1l1-1 1-1-1-1 3-1 1-1 1-1 3-3v2h1v1h2l1 1 1-1 1-1 1-1v1h2l2-1 1-1v-1l1 1 1-1 1-1 1 1 2-2-1-1h1v-1h-1l1-2v-1l1-1 1-1v-3l1-1v-1l1-1v-3h1l1 2h2l1-1v-3h1v-3l2 1v-2h1l1-1 1-1h-1l1-1 1-1-1-1 1-1v-1l-1-1 3 1 4 2v-3h2v1h1v2h3v1h2v1h1v2l-1 1v1h-1v3l1 1h1v-1h1v1h1v1h2l1 1v-1h1v1h1v1h3v1h1v1h-1v1l1 1h-1 1l-1 1h-2v-1l-1-1h-1l-1-2h-2 1v1h1v1h1l1 1 1 1h3v1h-1 2v3l-1-1h-1l1 1v1h-2l-1-1-1-1 1 1 1 1h2v1h1l1 1v1h-1v1l-1-1-1-1h-1v-1h-4l1 1 1-1 1 1v-1 1h1v1h1v1h1v1h2v-2l1 1h1l1-1 1 2v1l1 1 1 1h-1v-1h-1v1Zm-1-11h1l-1 1h1l-1 1v-2Z" id="Virginia" class="adm ssc-1-5"/><path d="M501 154v3l-4-2-3-1 1 1v1l-1 1 1 1-1 1-1 1h1l-1 1-1 1h-1v2l-2-1v3h-1v3l-1 1h-2l-1-2h-1v3l-1 1v1l-1 1v3l-1 1-1 1v1l-1 2h1v1h-1l1 1-2 2-1-1-1 1-1 1-1-1v1l-1 1-2 1h-2v-1l-1 1-1 1-1 1-1-1h-2v-1h-1v-2h-1l-1-1h-1v-1h-1l-1-1v-1l-1-1h-1l1-1h-1l-1-1-1-1h1v-2l-1-1v-1h3v-3h1v-4l1-1v-1h1l1 1-1 1h1v-1h1v-1l-1-1h1v-3h1v-1l1-1h1v1h1v-1h1v-1h1v-2l1-1h1v-6l1-1-1-1h1v-4l-1-1v-1h1v-1l1 5 1 5v3l7-1 4-1 1 3v4h1v-1l1-1h1l1-2h1v-1h1v-1l1-1v1h4l-1-1 1-1h1l1-1h1l1 1h1v1h1v1h1v1Z" id="West Virginia" class="adm ssc-1-1"/><path d="M357 308v-1h1v-1h1v1h2l-1 1h-1Zm8-49v1h-1l1 1v-1h1v1l-1 1v1h1v1h-1v1h2v-1 1h-1l1 1h-1v1h2l-1 1h1v2h-2v1h-1 2v1l-1 1v-1 1h1-1l-1 1v2h-1v-1l-1 2 1-1 1 1h-2v2h-1v-1 1h1v1h-1v2-1l-1 1h1v1l-1 1v2h1v1h-1 15l7-1v2l-1 1v3l1 1h1v1l1 1v2h1-2v1-1h-1l-1-1-1 1v-1l-1-1h-2l-1 2h-1v3h5v-1h1v-1l1 1 1-1v1h-1v2h1v1h1l1-1v-1l1-1v1h1v1h1v1h-1v1h-1l1 1-1-1h-2v1h1l-1 2 2 1v1h2v1l1-1v1h1v-1l1 1v1h1l-1 1v2h-1v-1l-1 1-1 1 1-1v-2l-1 1v-1l-1-1h-2v-1l-1 1v-1h-1 1l1-1v1-1h-3v-1h-1v1l-1-1h-1l-1-1v1l1 1h1v2h-1v1h1l-2 2v-1l-1-1h1l-1-1h-1l-1-1v1h-2v2l-1 1v-1 1h-2v-1h-4l-1-1h-1l1-1h1l1 1v-1l-1-1h-1v-2h1v-1l-1 1v1h-2v-1l-1 1v-2h-1v-1h-3v-1h-2l-1 1h-1v1h1v1h1-1l-2 1h-2l-2-1h-2l-2-1-1-1h-8l-1 1h-1v-1h-1l2-1v-2l1-1v-3h-1v-1l1-1-1-1h1-1v-1h1v-1l1-1v-2l1-1h-1v-1l1-1h-1v-1l-1-1v-2l-1-1v-1h-1v-4h-1v-1h-1l-1-1v-15h24l5-1Z" id="Louisiana" class="adm ssc-1-1"/><path d="m425 73 1-1v1-1h1v-1h1v1h1v2h-1v-1l-1 1h-1Zm-6 3h1l1 1h-2Zm-9 1h1l-1 1Zm-1 3v-1l1-1v1l1 1-1 1h-1Zm-3 7h1v1h-1Zm-1 2 1-1v1Zm-7-21v1Zm5 66 1-1 1-1v-1l1-2 1-1v-2l1-2v-5l-1-2v-1l-1-2-1-1v-1l-1-2-1-1v-1l1-1v-3l-1-1v-1l1-1v-1l1-2v-5h1v-3h1v-1l1 1 1-1v-1l1-1v-1h1-1v1l1 1h-1v1l1 1h-1v2h1v-3h1v1l-1 1v1h1v-1l1-2v-2l-1-1v-1l1-1 1-1h2v-1h-1v-1l-1-1 1-1 1-1h-1l1-1h2l1 1h4l1 1v1h2l1 1h3l1 1v1l1 1 1 1h-2v2h2v6l1 1v1h-1v1h-1v2l-1 1v1h-2v5h2v1l1-1 1-1v-1l1-1v-1l1-1 2-1 1-1h1l1 1 1 1v1l1 1v3l1 1v1l1 2v2l1 1v6h-2l1-1h-2v4l-1 1h-1v4h-1v2h-1v1h-1v2h-3l-6 1-4 1-1-1-5 1h-5l-3 1h-4Zm-31-82 1-1 2-1h1v-1h1v-1h2l1-1v1l-2 1v1h-1l-1 1-1 1-2 1Zm-10 19 1-1h2l1-1 1-1 1-1h4v-1l1-1 1-1h2v-1l1-1h1v-1l1-1h1v-1l2-1 1-1h4v1h-2v1h-1l-1 2h-1l1 1h-1v1h-1v4l1-2h1l1-1-1 1h5l1 1v1h1v1l1 1 1 1h1v-1l1 1v-1h1l1 1h1v-1l1 1 1-1 1-1h1l1-2h6l1-1 2-1h2v2l1 1h-1l1 1h2l1-1 1 1 1-1h2v-1h1v2l1 1v1h-1l-1 1h3l-1 1 1 1h1l-1 1-1-1v1h-3v-1l-1 1v-1h-1v1l-1 1 1 1h-1l-1-1h-1v-1h-3l-1-1h-1l-1 1v1h-2v1h-4l-1 1v2h-2v2h-1v-1l1-1v-2l-1 1h-1v1l-1 1h-1v-3 1l-1 1v2h-1v1l-1 1v2l-1 2-1 1v1h-1v-4l-1 1h-1v-2h1l-1-1 1-1h-1l1-1h-1l-1-1h-2v-2h-2l-1-1v1l-1-1-1 1v-1h-2l-3-1-3-1-7-1v-1l-1-1-1-1Z" id="Michigan" class="adm ssc-1-4"/><path d="m571 110 2-1h1v1h-2Zm-6 1v-1l1-1 1-1v1h1v1h-1l-1 1h-1Zm-29-13 5-1 3-1 5-1h2l4-1 1-1v-1h1v-1h1v-1h1l1 1v1l1 1 1-1v2l-2 1v2h-1 1l-1 1 1 1 1-1h1l1 1 1 1v2h2v2h3l1-1h1v-2h-1v-2h-1l-1 1v-1h2v1h1l1 2v2l-1 1h-2v1-1l-1 1-1 1-1 1v-2l-1-1v1h-1v1h-1v2h-2v-2h-1l-1-1h-1v-1h-1v-2l-4 1-3 1-4 1h-3v1-1l-2 1-4 1h-1v-5Z" id="Massachusetts" class="adm ssc-1-4"/><path d="M110 58v-1l1-1v-2l-1-1 1-1v-3l1-5 2-6 1-5 1-3v-4l1-1 1-7 5 1 4 1-1 7-2 7h1v2h1l-1 1h1v4h-1l2 2v1l2 1v1l1 1v1l1 1v2h1v1h1l-1 1h2v1l1 1 1-1v2h-1v3l-1 1v1h-1l1 1h-1v1l1 1v1h-1l-1 1v2h-1 1l-1 1 1 1h1v1h1v-1h1l1-1h1v-1h1v1l1 1-1 1h1l-1 1 1 1v2l1 1v1l1 1-1 1v2h1v1l1-1 1 1v5h1v1h1v-1h4v1l1-1 1-1v1h4v1l1-1 1 1h1v-1l1-1h1v-1 1l1 1v1l1 1v1l-1 6-1 7v4l-1 7-1 3-1 7-4-1-7-1-6-1-8-2h-4l-1-1-6-1h-2l-2-1h-3l-5-1-5-1-7-2 1-5 1-3 1-6 1-4 2-6v-2l1-1v-1h1v-1l-1-1h1-1l-1-1h-1l1-1h-1v-1h1v-1l1-1 1-1v-1h2v-1l1-1v-1l1-1 1-1v-1l1-1 1-2 1-1v-3h-1v-1h-1v-2Z" id="Idaho" class="adm ssc-1-1"/><path d="M489 363h1l-1 1Zm6-2h-1v-1Zm-2 1v-1Zm0 0-1 1h-1l1-1Zm-2 1h-1 1Zm-10-25 1 1h-1Zm-43-39h2v1h-1Zm1-18v1l1 1v1l1 1 6-1h10l4-1h11v2h2v-1h1l-1-1 1-1h-1v-3h5v1l1-1 1 1v2h1v3l1 2 1 2v2l1 1v1h1v1l3 4 1 2 1 1 1 2 2 2 2 2 1 1-1 1v3l1 1 1 2 1 1 1 2-1-1v-1h-1v-1l-2-2v-5h-1v2h-1v-3h-1v-1 2l1 1v1l1 1 1 1 1 2 2 3 1 1v1l1 2 1 1 1 3h1l1 2 1 2v2l1 1v12l-1 1v2l-1 1 1 1v1l-1 1v1h1v-1l1-1-1 2h-3l-1 1h-2l-1 1h-2v1l-1-1v-2h1v1h2v-1h-1v-1l-1 1v-1h-1l-1-1v-1h-1v-1l-1-1-1-1-1-1h-4v-1h1-1v-1h-1v-2l-1-1v-2h-2v-1l1-1 1-1h-1v1l-1 1h-1v-1h-1v-1l1-1-1-1v-1h-1v2h-1l-1-1v-1h-1l-1-1-1-2v-2l-1-1h-1v-1l1-1h-1 1v-2h1v-3h-1v2-1l-1-1-1-1-1 1 1 1h1v2l-1 1v-1h-1v-1h-1v-7l1-1v-3l-1-1h1l-1-2h-1l1-1-1-1v-1h-1v-1h-4v-1h-1v-2h-1l-1-1h-1v-2h-1v-1h-2v-2h-1l-1-1h-2l-1-1h-2v1-1h-1v1h-1v1h-1l1 1h-2l-1 1-1 1h-1l-1 1h-1v1h-3l-1 1v-3h-1v-1h-2l-1-1-1-1h1l1 1v-1h-2v-1h-1 1v-1h-2v1-1h1v1l1 1h-1l-1-1h-1l-2-1h-2l-1-1h-2 2l1-1 1 1v-1h-4l-1 1-2 1h-3l1-1-1-1h-1v1-1h-1v-1 3h-1v1h-1l-1 1h-1 1v-2h1v-1h-1v-3h-2v-1h-1v-3h6l5-1h7l2-1h5l3-1Zm42 55h1v2l-1-1v-1h-1v-1h1Z" id="Florida" class="adm ssc-1-0"/><path d="m229 118 4 1h5l6 1h15l4 1h21l1 1 1 1h1v1h1l1 1h1v-1h1v-1l1 1h3v-1l1 1v-1 1h1l1 1h2v1-1l1 1h1v2h1v1l1-1v1h2l-1 1v1h1v2l1 1v1l1 1v2h1l-1 2v1h1l-1 1h1v1h1v2h1v1h-1v1h1v7h1v2h1v3h1v1h1v1l1 1-1 1h2-48l-6-1h-10l-7-1v-4l1-6v-4h-8l-7-1h-6l1-6v-6l1-4v-5Z" id="Nebraska" class="adm ssc-1-1"/><path d="M62 28v1Zm-1 1 1-1-1 1Zm0 0v1Zm5-12v1-1l1 1v2h-1v-1l-1-1v-1h1v-1h-1l-1-1 1-1h1v-1h1v2h-1v2Zm-2-5v-2l1 1v1Zm1-4 1 1v1h-2V9Zm-2 1 1 1-1 1h-1v-1Zm55 9-1 7-1 1v4l-1 3-1 5-2 6-1 5v3l-1 1 1 1v2l-1 1v1l-5-1-5-1-4-1-5-1h-5l-1-1v1h-6v1l-1-1h-2v-1h-2l-1 1h-1l-2-1v1h-1v-1l-1-1h-1l-1-1h-5v1h-3v-1h-1l-1-1h-1v-8h-1v-1h-3v-2h-1l-1-1h-2l-1-1-1-1 1-2 1-2v1l-1 1v2h1v-1h1v-3h1-1l-1-1v-2h3l-1-1v-1h-2v1-2l1-2v-1h-1v-1l1-2v-4l-1-1v-5l1-1V8h1l1 2 1 1h1l1 1 1 1h2l1 1h1v1h3v1h2v1-1h1v4l-1 1-1 1 1-1-1-1v1l-1 1-1 1-1 1h-1v2-1l1-1 1-1h2l1-1 1-1 1-1v-1 3h-1v4l-1 1v1h-1v-1h-1v1l-1 1v-1l1-1v-1l-1 1v2l1 1 1-1 1-1 1 1v-1h1v-4h1-1v-1h1v-1l1-1 1-1 1-1-1-1v-2h-1v1h-1v-1l1-1 1 1v-2h-1v-1h-1v-1h1l1 1v-2h1l-1-1 1-1V8h-1v1h-1l1-1h-1V6l1-1 5 2h3l5 2 4 1 7 2 5 1 6 1 6 2 5 1ZM47 36v-1Zm17-19h1v1h-1Zm1 7h-1v-2l1 1Zm-2 3 1-1v1h1-2Z" id="Washington" class="adm ssc-1-4"/><path d="M233 202v7h-1v6l-1 6v7l-1 7v9l-1 4v4l-1 6v9l-1 5-7-1h-4l-6-1h-4l-7-1-7-1h-6v2l1 1-4-1h-6l-4-1h-6v6l-6-1-4-1v-4l1-6 1-5 1-4v-7l1-5 1-8 1-5 1-5v-6l1-5 1-5 1-6 1-7 4 1 4 1 8 1h7v1h7l7 1h5l1 1h8l3 1h6Z" id="New Mexico" class="adm ssc-1-4"/><path d="M305 129h-1v-1l-1 1v-1h-1v-2h-1l-1-1v1-1h-2l-1-1h-1v-1 1l-1-1v1h-3l-1-1v1h-1v1h-1l-1-1h-1v-1h-1l-1-1-1-1h-21l-4-1h-15l-6-1h-5l-4-1v-5l1-6v-4l1-7v-5l1-5v-8h5l6 1h7l7 1h19l4 1h24v2h-1v1h-1l-1 1v1l1 1v1h1l2 1v26h-2 1l-1 1h1v3h1v2h-1v3l-1 1v1h1v1l1 1v1Z" id="South Dakota" class="adm ssc-1-1"/><path d="M320 315v-1l2-1 1-1h1v-1h1l-1 1-3 2Zm-28 29v1l1 1v2-1l-1-1v-1Zm0-3 1-1v-3l1-2v2l-1 2v2Zm-59-132 4 1h14l3 1h11v21l-1 6h2v1l1 1 1 1h1v-1l1 1h1v-1h1v1l1 1v1l1 1 1-1v1-1h1v1h2v1h1v-1h1l1 2 1-1 1-1v1h3-1l1 1v1h1v1l1 1h1v-1h1v-1h1v1h2v1h1l1-1v1-1h1v2l1 1v-2l1-1 1-1v1l1 1h2v-1l1 1h-1 1l1 1h1l1 1v-1h1l1-1h4v-1l1 1v-1h1l1 1h3v-2l1 1h1v1h1l1 1 1 1h1l1 1h2l1 1h2v-1l1 1h1v22l1 1h1v1h1v4h1v1l1 1v2l1 1v1h1l-1 1v1h1l-1 1v2l-1 1v1h-1v1h1-1l1 1-1 1v1h1v3l-1 1h-1v1l-1 1v1l1 1h-2l-1 1-4 2-2 1h-1v1h-1l1-1v-1h2v-1l-3 1 1-2v-1l-1-1v1h-1v1h-1v-1h-1l1 1h-1l1 1h-1l1 1v1h1v2h-2v1l-1 1v-1 1l-1 1v1l-1 1-1 1h-1l-2 1-1 1h-3v1h1l-3 1-1 1 1-1h1l1-1h-2l-1 1v-2h-1v1h-1v-1h-1v1h1l-1 1v-1l-1 1v-2h-2l1 1v1h1v1h1l1 1h-1l-1 1h-2v-1h-2v1h1v2h-1v1h-1v-2 1l-1 1v-1l-2 1v1h2l-1 1-1 2h-1v-1h-1l-1 1-1-1v1h1l1 1v1h1v1l-1 1v1l-1 1v1h-1v-1l-1 1h-1l-1-1v1h1v1h3v1l-1 1v1l-1 1v2h1v3l1 1-1 1h1v1l1 2v2h1v2h-2v1h-2v-1l-1-1h-2v-1h-6v-1h-1l-1-1h-1l-1-1-1 1-1-2h-2v-1h-2v-2h-1v-2l-1-1v-1h-1v-2h-1v-4h-1v-2l1-1h-1v-2h-2v-1h-1v-1h-1v-2h-1v-1l-1-1v-1l-1-1h-1v-1h-1v-3h-1 1-1v-1l-1-1v-3l-1-1h-1v-3h-1v-2h-1v-1h-2v-2h-1l-1-1h-1 1l-1-1v-1h-1v-1h-1v-1 1h-1v-1 1l-1-1-1 1-1-1h-4v-1h-2l-1 1h-4v2l-1 1-1 1v2h-1l1 1h-1l-1 1v1h-1v1h-3v-1h-1l-1-2h-2l-1-1-1-1h-2l-1-1-1-1v-1h-2v-1l-1-1-1-1v-2l-1-1v-5h-1v-2h-1v-3h-1v-1l-1-1h-1v-1h-1l-1-1-1-1v-1h-1v-1l-1-1h-1v-1h-1v-2h-1v-1h-2v-1l-1-1-1-1v-2h-1v-1h-1l-1-1v-2h6l7 1 7 1h4l6 1h4l7 1 1-5v-9l1-6v-4l1-4v-9l1-7v-7l1-6v-6Zm69 118h-1l-2 2 1-1h-1l1-1h1v-1h2l2-1h-1l-1 1Zm-3 2-1 1-1 1 1-2 1-1Zm-4 29h-1l1-1v-1 2Z" id="Texas" class="adm ssc-1-1"/><path d="m54 224 1 1h1v2-1h-1v-1l-1-1Zm-2 6h1v1l1 2h-1v-1l-1-1Zm-10-6h1l1 1h-1l-1-1Zm1-11h1v1l1-1v1h-3l-1-1v-1h1v1Zm-4 1h-1v-2h1l1 1v1Zm-4-3h2v1h-1v-1ZM27 93l2 1 2 1h1l3 1h2l1 1 3 1h3l5 2 6 1 1 1h2l7 2 3 1-2 5-1 6-1 4-1 5-2 7-2 6-1 4-1 3 2 3 3 5 3 3 2 4 4 7 3 4 2 2 3 4 3 5 2 4 3 4 2 4 3 4 4 6 3 5 3 4v3l1 1v2l1 1-1 1h1l1 1 1 1v1h-1l-1 1h-2v1l-2 1v5h-1v1l-1 1h-1v1l-1 1h1v2h-1v1h1v1h1v2l-1 1-1 1-1-1v1l-7-1-5-1-6-1h-5l-5-1 1-1v-1l-1-1-1 1v-1l1-1h-1l1-1v-3l-1-3-1-1-1-1v-1h-1v-1l-1-1-1-1-1-1-1-1h-2v-3l-1-2h-3v-1h-1l-2-1-1-1v-2l-1-1-1-1h-1v-1h-3l-1-1-1-1h-3l-2-1v-1l-1-1 1-1v-3l1-2v-2h-1l-1-1v-1l1-1v-1h-1l-1-1v-1l-1-1v-1h-1v-2l-1-1v-3h-1v-1l-1-2-1-1v-5h2l1-2v-2l-1-1h-2l-1-1v-2h-1v-2l1-1-1-2v-2l1-1v-1l1-1v4h1v1l1 1h1-1v-4h-1v-4h2l-1-1-1-1h-1v4h-1l-1-1h-1v-2l-1-1h-1l1-1v-3h-1v-3h-1v-1l-1-2-1-1v-1l-1-1v-2h1v-7l1-1v-6l-1-1v-1l-1-1-1-1v-4h1l1-2 1-1h1v-1l1-1 1-1-1-1 1-1v-1l1-2 1-1v-4l-1-1h1v-2Z" id="California" class="adm ssc-1-4"/><path d="m400 293-1-6-1-5-1-7v-25l1-3v-16l-1-1v-1h8l7-1h5l6-1h3v3l2 6 2 8 1 3 2 5 1 4v1l1 1v1l1 1v1h1v2l1 1-1 1-1 1v6l1 1v6h1v1l1 1h-3l-3 1h-5l-2 1h-7l-5 1h-6v3h1v1h2v5h-1v1l-2 1h-3 1l1-1-1-1h-1v-4h-1l-1 2v3h-1l-1-1h-1Z" id="Alabama" class="adm ssc-1-1"/><path d="M440 225h2l6-1h3l2-1v1l-1 1-1 1v2h1l1 1h1l1 1h2v1l1 1v1h1v1l1 1 1 1 1 1 1 1h1l1 1 1 1v1h2v1h2v2h1v1l1 1 1 1h1l1 1v1h1v1h1v3l1 1h1l1 1v1h1v2l1 1v1h3v1l-1 1v-1 2h-2v2l-1 1h1v1l-1 1h1v1l-1 1v-1 2h-1v4h-1 1l-1 1h2v3h-1l-1 1v-1h-5v3h1l-1 1 1 1h-1v1h-2v-2h-11l-4 1h-10l-6 1-1-1v-1l-1-1v-1l-1-1v-1h-1v-6l-1-1v-6l1-1 1-1-1-1v-2h-1v-1l-1-1v-1l-1-1v-1l-1-4-2-5-1-3-2-8-2-6v-3h2l5-1Z" id="Georgia" class="adm ssc-1-1"/><path d="m482 152-4 1-7 1v-3l-1-5-1-5v-3l-1-5-1-6-1-4 2-1 1-1h1v-1l2-1v-1h1l1 4 3-1h3l3-1 2-1h5l3-1 7-1 4-1 4-1 6-1 4-1 1 1 1 1v-1 1l1-1v1l1 1v2l1 1h2l1 1-1 2v2h-1v1l-1 1v1l1 1v1h-1v1h1l-1 1h1v1h1l1 2h1l1 1 1 1 1 1h-1v1h-1l-1 1v1h-1v1l-1 1h-1v1h-2l-1 1-1 1-6 1-6 1-5 1-7 2h-4l-4 1Z" id="Pennsylvania" class="adm ssc-1-4"/><path d="m325 212-1-7v-30h-1l-1-1-1-1v-1l-1-1-1-1v-1l1-1v-1h1v-1l-1-1h1-3v-1h-1v-1h-2l1-1-1-1v-1h-1v-1h-1v-3h-1v-1h31l7-1h4v1h1l1 1v1h1v1l-1 1v2l1 1v3h1v1l1 1 1 1 1 1 1 1 2 1v1h1v2l1 1h-1l1 1v1l1 1v-1l1-1h1l1 1h1l1 1-1 1v3l-1 1v4h1v1h1l1 1 1 1h1-1l1 1 1-1v1h1l1 1 1 1v1h1l-1 1h1v1l1 1v1h-1v2l1 1 1 1v1l1-1h-1 1l1 1h1v1l-1 1 1 1h-1v3h-1l-1-1v2h-1v-1h-1v2h1v1h-1l1 1h-2v1h1v1l-1 1v1h-8 1v-1l1-1 1-1v-1h1-1l1-1h-1v-2l-7 1h-18l-4 1h-15Z" id="Missouri" class="adm ssc-1-1"/><path d="M244 203h-9l-2-1h-11l-3-1h-8l-1-1h-5l-7-1h-7v-1h-7l-8-1-4-1-4-1v-5l1-2v-5l1-4v-1l1-6v-2l1-4v-5l1-5 1-8v-2l1-6 6 1 4 1h5l8 1 4 1h7l5 1h6l6 1h6l7 1h8v4l-1 6v14l-1 7v5l-1 6v9Z" id="Colorado" class="adm ssc-1-5"/><path d="m127 118 1 1h4l8 2 6 1 7 1 4 1-1 5-1 8 5 1 4 1 6 1h5l-1 6v2l-1 8-1 5v5l-1 4v2l-1 6v1l-1 4v5l-1 2v5h-5l-4-1-7-1-6-1h-1l-8-1-7-1-5-1-7-2h-4l1-9 1-3 1-6 1-3 1-7 1-7 2-6 1-6 1-5 1-6 1-4 1-5Z" id="Utah" class="adm ssc-1-1"/><path d="m397 229-8 1-6 1h-10 1l1-2h1l-1-1v-1h-1 1v-2 1h-1v-1h1v-1 1h1v-2l1 1v-2h1-1l-1-1 1-1v1l1-1 1-1h-1v-1h2l-1-1v-1l1-1v-1h-1v-1h2l-1-1h1v-1h-1v-1h2l1-1h14v-2l-1-1h11l5-1h6l3-1h10l4-1h6l3-1h1l3-1h5l4-1h3l3-1h3v3l-1 1v-1 1h-1l-1 3h-3l-1 1v1l-1 1h-1v-1h-1l-1 1v1h-1v2h-2v1h-1l-1 1v1-1l-1 1h-1v1h-3l-1 1v1h-1v1l-1 1h1l-1 1h-2v4l-7 1-5 1h-5l-6 1h-5l-7 1h-8Z" id="Tennessee" class="adm ssc-1-1"/><path d="m157 124 1-7 1-3 1-7v-4l1-7 1-6 1-8 3 1h4l2 1h4l6 1 6 1 5 1h3l5 1h6l6 1 7 1h5l6 1v5l-1 7v4l-1 6v5l-1 7v5l-1 4v6l-1 6-6-1h-6l-5-1h-7l-4-1-8-1h-5l-4-1-6-1h-5l-6-1-4-1-5-1 1-8Z" id="Wyoming" class="adm ssc-1-1"/><path d="M533 131v-1h1v-1l1-1v2l-1 1Zm3-33v10l1 6 1 4 1 1-2 2 1 1v1h-1v2l-1 1v1h-1v-2l1-2h-1l-4-1-2-1-3-1-1-1h-2l-1-1v-2l-1-1v-1l-1 1v-1 1l-1-1-1-1-4 1-6 1-4 1-4 1-7 1-3 1h-5l-2 1-3 1h-3l-3 1-1-4 1-1 1-1 1-1 1-1 1-1h1v-2h1v-1l1-1v-1h-1v-1h-1v-1h-1v-3l2-1 2-1h1l1-1h7l1 1h1v-1h2l1-1h3l1-1 1-1v-1h1v-1l1-1h2v-2l-1-1v-1h-1l1-1h1v-1h-1v-1h-1 1l-1 1v-1h-1v-2h1v-1l1-1 1-1 1-1v-1l1-2 1-1 2-2v-1l1-1h1l1-1v-1h2l2-1h3l3-1h2l3-1v2l1 1v3l1 1v1l1 2-1 1v2l1 1v2h1v3-1h1v1h1v4l1 3 1 3Zm4 26v-1h2l1-1h1l1-1h2l1-1h1v-1h1v-1 2h-1v1h1l-1 1v1h-2v1h-2v1h-2v1h-1v1h-2l-1 1h-2v1h-2v-2h1v-1h1v-1l1-1v1-1l1-1Zm14-6 1-1h1-1v1l-2 1-2 2h-1v-1h1v-1h1v-1h1v1Z" id="New York" class="adm ssc-1-4"/><path d="M324 205h-48l-6-1h-18l-4-1h-4v-14l1-6v-5l1-7v-10l7 1h10l6 1h48v1h1v1h3-1l1 1v1h-1v1l-1 1v1l1 1 1 1v1l1 1 1 1h1v23Z" id="Kansas" class="adm ssc-1-1"/><path d="M-12 356h1v1h-1v-1Zm-2 2v-1h-1 1v1h1v1Zm0-3Zm-1 0v1Zm-3-1h1v-1h1v1h-2Zm-3-4h1-1Zm-6-4v1h1v-1 1h-1Zm1-1v-1h-1v1-1h-1v-1h1v1h1-1 1v1Zm153 2h1-1Zm-1 0v-1h1v1h-1Zm-3 1h1v1h-1Zm-3-6h1v-1h1l-1 1h1-2Zm1 4Zm0 1h-1l1-1h-1 1v1Zm0 0v1-1h-1 1Zm-1-3h-1v-1h1v1l-1 1v-1Zm0-2 1 1v1-1h1v1h1v1h1-1v1-1h1v1h1-1 1v1l1 1h-1 1v1h-1v-1h-1v-1h-3 1v-2l-1 1v-2h-1v-1h-1v-1h1Zm3 5v1-1Zm-1 0v1h1v1h1-2v-2Zm0 0-1 1v-1 1-1Zm-1-2h-1 1Zm0 0-1-1h1v1Zm-1 1v1-1Zm-1-1Zm-1 0Zm-1-5v1-1 1h1v1-1 2h1-1 1-1l1 1h-1v-1 1-1h-1 1v-1h-1v-1h-1Zm1-1h1v1-1h1v2-1h-1l1 1v1h-1v-1h-1v-1 1-1h-1v-1h1Zm2 1h1v1h-1v-1Zm-4-3h1l-1 1h1-1l1 1h-1v1h-1v-3h-1v-2h-1v-1l1 1h1l1 1v1h1-1v-1l-1-1v1Zm-3 2v-1 1-1l1 1h1v2h1v2h1l-1 1h1-1v-1h-1v-1h-1v-1l-1-1h1-1v-1h-1 1Zm-1 1h1v1h-1 1v-1Zm0 0h1Zm-3-3 1-1v2-1h-1Zm3-1h2-1v1h1-2 2v1h-2v1h1-2v-1h-1v-2h1v-1h1v1Zm-24-4h1v-1 1h-1Zm-4-2v-1h1l-1 1Zm-1 0h1l-1 1v-1 1-1Zm-2-1Zm1 2v-1 2h-1v1l-1 1v-1h1v-2h1Zm-2 0v-1h1v1h-1v1-1Zm0-2Zm0 4v-1 1Zm-1-2h1-1Zm1 1v1Zm-1 1h1v-1 1Zm-5 3h-1 1Zm-3 6v-1 1Zm-1-11h1-1Zm0 7Zm-3 4h1v1h-1v-1Zm1-1h1-1 1v-1 1h2v1h-2v1h-1v-1h-1 1v-1Zm1-1h1-1Zm-2-4Zm-2 14v-1 1-1 1Zm0 0h1-1Zm-2 0h1Zm1 0Zm0-4v-1h1v-1l1 1v1-3l1 1h1l-1-1h1-1 2-1v1l1-1v1-1h1v1h-1 1l-1 1h1v1l-1-1h-1 1v1h-1v1h-2 1v1h-1v1h-1v-1h1v-1l-1 1v-1h1-2 1v1h-1v-2Zm3-2v-1l1 1Zm1 3v1h-1v-1h1Zm-7 6v1-1Zm-4-3v-1 1Zm-6 7Zm-1 0v-1h1v1h-1 1Zm0-1Zm-2 1 1-1h-1 1v-1 2h-1Zm0-2v-1h1v1l-1-1Zm0 0Zm-1 1v-1 1-2 1h1-1 1Zm1-17v-1h1l-1 1Zm-4 16v1Zm-1 2h-1v-1h1Zm4-42v-1 1Zm0-1h1v1h-1Zm-6 44 1 1h-1v-1Zm-4-3h2v1h1-1l1 1h-3v1h-2v-1h1v-1l1-1v1Zm-3 4h1-1Zm-1 0h1Zm0-1v1-1Zm-1 1h-1v-1h1v1h1-1Zm-1 1Zm7-29h-2v1-1h-1v-1h-1v-1h2v-1 1h2v1Zm-11 31h-1v-1h2v-1h1l-1-1h3-1 1l-1 1h1-1v1h-3v1Zm75-32 2 1 1 1h1v1l1-1h1v-3h1l1-1h1v2h2v1h1l1 1h1l1 1h-1 1v1h1l1 1v1h1l1 1v1h1v1h1v1h4v1h1v-1l1 1v2h1v4h-2v-1h-1v-1h1l-1-1v-1l-1-1h-1v1h-1 1v2h-1v-4 1h-1v-1h-1v-1h-2v-1h-1v-1 1h-1v-1h1-1v-1h-1v-1h1-1v-1 1h-1v-1h-1v-2 1h-2v-1h-1v-1l-1-1v-1h-1 1v1h-1v-1l1 1v1h1v2h1v1h-1v-1 1l-1-1v1l-1-1h1-1v-2 1l-1-1v1h-2v-1 1h2v1h1v1h-1 1-1v1-1 1h-1v-1 1l-1-1h-1v-1h-1v-1h-3v-1h-2v-3l1 1v1-1l-1-1v1h-1v1h-3v-1h-1 1-1v1l-1-1h-2l-1 1h-3v-1h-1v-1 1-1 1h-2v-1h-1v-1 1h-1v-1 1-1h1-2 1l-1-1h1-1v1-1h-1 1l-1 1v-1h-1v1h-1 1v-2l-1 1v1-1 1-1 2h-1 1v1h-1 2l-1 1v1-1h1v1h-1v1-1 1h-2v-1 1-1h-1v1h1-1v1-1 1h-1v1-1 1h-1 1-1v1h-1v1-1 1h-3v-1h1v-1 1h1v-1h1v-1h-1v1h-1v-3h1v-3h1v-1h1l1 1v-1h2v1-1h-2v-2h1v-1l-1 1v1h-3v1h-1v2-1l-1 1-1 1h1-1v1h-1 1v1l-1 1h-1 1v1h-1v-1 1h-1 1-1v1h-1v2h2v2h-2v1h1-1v1-1 1h-1v1-1 1h-2v1h-1v1h-2v3l-1-1v1h-1v1-1h-1v1h-1v1-1 1h-2v1l1-1v1l-1 1h1-1v-1 1h-2v1-1 1h-1v1-2 1h-2v1h-3v-1l1 1v-1h-1l-1 1h1-1v1h-1 1l-1 1v-1 1h-1v-2 2h-1v-1h-1l1 1h-1v-1h1v-1h1l1-1v-1h4v1-1h1v1-3h1l1-1h2v-1h1v-1h1v-1h1v-1h1v-3h1v-2l1-1v-1l-1 1h-3v-1l1-1v1-1h-1v2h-1l1 1h-1l-1-1v-1h-1 1-2v-1h-1v1h-2v1h-2v-1h1v-1h1v-1h-1v-1h1v-1h-1v-3l-1-1v2h-4v-2h-1v-1h-1l1-1h-1 1v-1h2l-1 1h2-1 1-1v1h1v-2h-3v-1 1-2h-1v1-2h-1 1v-1h-1 1v-1h-1 1v-2h1l1-1h1v-2h1v-1h2-1l1 1h1v-1h1l1-1h3v-3l-1-1v-1l1 1v-1h1l-1-1h-2l-1 1v1h-1v-2h-1v1h1-1l-1-1v1-1h-1v1l-1-1v1h-1v-1h-2v-4h1v1-1h-1l-1-1h-1v-1h1v-1h1l1-1h1l1 1v-1h-1 1v-1h4v1h-1v1h1l1 1v-1 1-1l1 1h2v-1h1v1-1l-1-1h-1v-1h-1v-1h1v2h2v1h1l1-1h-1v-1h-1v1h-1v-1h-1 1v-2h-2 1-2l-1-1v-2l-1-1v-1h-1v-1h-1v-1h-1v-1h1v-2l1 1h3v-1h1l1-1v-2h1v-1h1v-1h1-1 2l1-1h1v1-2h1v-1 1h2l1-1 1-1h2v1h-1v1h1v-1h1-1 2v1h-1 4v1h1v1h3v-1h1l1 1h2v1l1-1v1-1h1l1 1v-1l1 1h2v-1h3v1h2v1-1h1v3l1 3v4l1 5 1 3v1l1 3v1l1 3v2l1 3v4l1 2v1l1 4v3h1l1-1 1 1v-1l2-1v2h1Zm24 12v1h1v3-1l-1 1v-1 1-1h-1v-2l1-1Zm0 4h-1v-1Zm-3-4h-1v-1h1v1h1-1Zm0 0v1h-1v-2 1h1Zm-8-8v1l-1-1v1-1h1Zm-29-4Zm-6-2v1h-1v-1h1Zm-1 1Zm1 3h-1 1Zm-5 3v1h-1Zm-51 26v-1h2v1h-2v1h-1l-1 1v-1h1v-1h1Zm-4 1v-1 1Zm4-17h1-1Zm-4 17h-1 1Zm-1 0Zm-1 0h1v1Zm5-20v-1h1v1h-1Zm-7 21 1-1v1Zm-1 0Zm13-52v-1l1 1h-1 3v1h1v1h1l1 1h-2v1h-1v-2h-1v-1h-2v-1Zm-17 52v-1h1v1h-1Zm11-38h-1v-1l1 1 1 1ZM8 363h2-3v-1h1v1Zm-2-1H3v-1l1 1v-1 1h1l1-1v1-1h1v1H6h1-1Zm-5-1v1Zm0-1v1Zm0 2H0v-1Zm-3 0v-1h1v-1 1-1 1h1l-1 1h-1Zm2-1v1h-1l1-1Zm-4 0h1l1-1v1h-2v-1 1Zm-1-2v1h1-1v1-1 1-2Zm-2 0Zm-1 2h-1Zm-1 0Z" id="Alaska" class="adm ssc-1-1"/><path d="m97 112 7 2 5 1 5 1h3l2 1h2l6 1v2l-1 5-1 4-1 6-1 5-1 6-2 6-1 7-1 7-1 3-1 6-1 3-1 9-1 4-1 4v3h-1l-1 1v1h-1l-1-2v-1l-1 1v-1h-3v4h-1v10h-1l1 1h-1v1l-3-4-3-5-4-6-3-4-2-4-3-4-2-4-3-5-3-4-2-2-3-4-4-7-2-4-3-3-3-5-2-3 1-3 1-4 2-6 2-7 1-5 1-4 1-6 2-5h1l7 2 5 1 2 1h3l5 2Z" id="Nevada" class="adm ssc-1-3"/><path d="m384 203-1-1h-1 1l-1 1v-1l-1-1-1-1v-2h1v-1l-1-1v-1h-1l1-1h-1v-1l-1-1-1-1h-1v-1l-1 1-1-1h1-1l-1-1-1-1h-1v-1h-1v-4l1-1v-3l1-1-1-1h-1l-1-1h-1l-1 1v1l-1-1v-1l-1-1h1l-1-1v-2h-1v-1l-2-1-1-1-1-1-1-1-1-1v-1h-1v-3l-1-1v-2l1-1v-1h1l-1-1h1l-1-1 1-1 1-1h1v-2l1-2 1-1-1-1v-1h-1v-4h4l1-1h1l1-1v-2l1-1h1v-5h-1l-2-1v-2h-1l-1-1-1-1h7l3-1h14l2-1h3v4l1 1 1 1v1l1 2v1h1v6l1 7v5l1 4v4l1 8h-1v3l1 1v3h1v2h-1v1l-1 1v2h-1v2h-1l-1 1h1v1h-1l1 1h-1v2h-1l1 1v1l-1 1v2h1v1h-2l-1 1h-1v3l1 1-1 1h-1v-1h-2l-2-1h-1l-1 1v2Z" id="Illinois" class="adm ssc-1-4"/><path d="m544 96-3 1-5 1v-1l-1-3-1-3v-4h-1v-1h-1v1-3h-1v-2l-1-1v-2l1-1-1-2v-1l-1-1v-3l-1-1v-2l2-1 4-1h1l3-1 3-1 4-1v1l1 1-1 1v1l1 2v2l-1 1v1h-1l-1 1-1 1h1v7h-1v6h1l-1 1 1 1v3l-1 1h1v1l1 1Z" id="Vermont" class="adm ssc-1-4"/><path d="M162 90v-1l-1-1v-1l-1-1v-1 1h-1l-1 1v1h-1l-1-1-1 1v-1h-4v-1l-1 1-1 1v-1h-4v1h-1v-1h-1v-5l-1-1-1 1v-1h-1v-2l1-1-1-1v-1l-1-1v-2l-1-1 1-1h-1l1-1-1-1v-1h-1v1h-1l-1 1h-1v1h-1v-1h-1l-1-1 1-1h-1 1v-2l1-1h1v-1l-1-1v-1h1l-1-1h1v-1l1-1v-3h1v-2l-1 1-1-1v-1h-2l1-1h-1v-1h-1v-2l-1-1v-1l-1-1v-1l-2-1v-1l-2-2h1v-4h-1l1-1h-1v-2h-1l2-7 1-7 7 1 5 1 6 2h3l7 1 5 1 7 2 7 1h4l4 1h3l7 1 4 1h5l4 1 5 1h8l7 1 5 1h6l-1 6v4l-1 7v6l-1 7v4l-1 8v8l-1 5-6-1h-5l-7-1-6-1h-6l-5-1h-3l-5-1-6-1-6-1h-4l-2-1h-4l-3-1Z" id="Montana" class="adm ssc-1-1"/><path d="M312 155v-1h-1v-7h-1v-1h1v-1h-1v-2h-1v-1h-1l1-1h-1v-1l1-2h-1v-2l-1-1v-1l-1-1v-2h-1v-1l1-1h-1v-1l-1-1v-1h-1v-1l1-1v-3h1v-2h-1v-3h-1l1-1h-1 28l6-1h20v2h1l1 1-1 1v4h1v2l1 1h3v2l1 1 1 1h1v2l2 1h1v5h-1l-1 1v2l-1 1h-1l-1 1h-4v4h1v1l1 1-1 1-1 2v2h-1l-1 1-1 1 1 1h-1l1 1h-2v-1l-1-1h-1v-1h-4l-7 1h-29Z" id="Iowa" class="adm ssc-1-5"/><path d="m453 223 4-1 1-1 1-1h1l1-1v1-1h7l6-1h2v1l1-1 2 2v2l4-1 7-1h2l4 3 1 1 5 4 5 3-2 1h-1l-1 1v2l-1 1-1 1v3h-1 1v2l-1 1h-1l1 1h-3v1l-1 1h1l-1 1h-1v1l1-1-1 1h-1v2h-1v1h-1v1h-1l-1 1-1-1v1h-2l1 1h1l-1 1h-1v2l-1-1-1-1h-1l1 1v1h1v2h-1l-1 1h-2v-1l-1-1v-2h-1v-1l-1-1h-1l-1-1v-3h-1v-1h-1v-1l-1-1h-1l-1-1-1-1v-1h-1v-2h-2v-1h-2v-1l-1-1-1-1h-1l-1-1-1-1-1-1-1-1v-1h-1v-1l-1-1v-1h-2l-1-1h-1l-1-1h-1v-2l1-1 1-1v-1Z" id="South Carolina" class="adm ssc-1-1"/><path d="M559 90h-1v1h-1v1h-1v1l-1 1-4 1h-2l-5 1-1-1v-1h-1l1-1v-3l-1-1 1-1h-1v-6h1v-7h-1l1-1 1-1h1v-1l1-1v-2l-1-2v-1l1-1-1-1v-2l1-1-1-1h1v-1h2v-1l1 4 2 5 1 4 2 6v1l1 3h1v3h1v1h1v2h2v1l-1 2Z" id="New Hampshire" class="adm ssc-1-5"/><path d="m168 195-1 7-1 6-1 5-1 5v6l-1 5-1 5-1 8-1 5v7l-1 4-1 5-1 6v4h-5l-4-1-8-1-4-1h-3l-3-2-4-2-5-3-7-4-3-2-5-3-4-2-5-3-4-3 1-1v-1h1v-1l1 1 1-1 1-1v-2h-1v-1h-1v-1h1v-2h-1l1-1v-1h1l1-1v-1h1v-5l2-1v-1h2l1-1h1v-1l-1-1-1-1h-1l1-1-1-1v-2l-1-1v-4h1l-1-1h1v-10h1v-4h3v1l1-1v1l1 2h1v-1l1-1h1v-3l1-4 1-4h4l7 2 5 1 7 1 8 1h1l6 1 7 1 4 1Z" id="Arizona" class="adm ssc-1-1"/><path d="M510 160v-1h-1v-2l2 2Z" id="District of Columbia" class="adm ssc-1-6"/><path d="M524 143v-1h1l1-1v-1h1v-1l1-1h1v-1h1l-1-1-1-1-1-1h-1l-1-2h-1v-1h-1l1-1h-1v-1h1v-1l-1-1v-1l1-1v-1h1v-2l1-2 3 1 2 1 4 1h1l-1 2v3l-1 1v1h-1v1h3l1 1v5h-1l1 1v1l-1 1v1h1v1h-1v1h-1l1 1h-1v2h-1 1l-1 1v1h-1 1l-1 1v1l-1 1h1v1l-1 1-1 1v-4h-4v-1h-2l-1-1h-1v-1l1-1h-1v-3Zm12 1v1Zm0 1-1 1 1-1Z" id="New Jersey" class="adm ssc-1-4"/><path d="m529 167-2 1h-1l-1 1h-1l1-2h-1v-1l-1 1v-1h1v-1h-1v-2 2h-1v-1 2l-1-1h-1v-1h-1l-1-1 1-1h-1v-1h3-1l-1-1-1-1v1l-1-1v-1h2-1l1-1h-1v-1h-1v2-3 1h1v-2h-1v-3l1-1h1v-3l-1 1-1 1h1l-1 1v1h-1v-1l-1 1v2h-1v1h1v1l1 1h-1l1 1h-1v3l1 1v2l1 1 1 1v2l1 1v1-1h-1v-1 1h-1v-1h-5v-1l-1-1-1 1h-1l-1-1v-1l1-1v-1l1-1v-1l1-1-2-2v1h-2v-1h-3v-2h-1v-1h-2v-1h-1v-1h-1v-1h-1l-1-1h-1l-1 1h-1l-1 1 1 1h-4v-1l-1 1v1h-1v1h-1l-1 2h-1l-1 1v1h-1v-4l-1-3 6-1 4-1h4l7-2 5-1 6-1 6-1v1l2 6 2 6 1 4 3-1 3-1v2h1l-1 1v1h-1v2Z" id="Maryland" class="adm ssc-1-4"/><path d="M575 66v1h-1Zm-1 3h-1v-1l1 1h1Zm-14 18h-2v-2h-1v-1h-1v-3h-1l-1-3v-1l-2-6-1-4-2-5-1-4h2v1l1-1v-1h-1v-1h2l-1-1v-2l1-1v-1h1v-2l1-1h-1v-3h-1v-1l1-1v-2h1l-1-4 1-3 2-6 1-3h2v2h1l1 1h1v-1h1l1-1v-1h2l-1-1h3l1 1h1l1 1h1l2 6 1 5 1 4h1l-1 1 1 1v2h4v2h1v2l1 1 1 1v-1h1l1 1h1v2h-1l1 1v-1h1v1l-1 2v1-1l-1 1v-1l-1 1h1l-1 1h-1v1l-1 1-1-1v1l-1-1v1l1 1h-1v1h-1v1l-1-1v-1l-1 1h-1 1-1v1h-1l-1 1h1v2l-1-1h-1l-1 1v-4h-1v2l-1 1h1v1l-1 2v1h1l-1 2v1h-1v-1 1l-1-1v2l-1 1v-1l-1 1v-1h-1v1h-1v-3 1l-1 1h1l1 2v1l-1-1h-1v1-1h-1l-1 1v2l1 1-1 1h-1v1h1v1h-1v1l-1 1v3Zm17-24v-1h1l1 1v1l-1 1h-1v-2Z" id="Maine" class="adm ssc-1-4"/><path d="m194 355-1-2-1-2 1-1h1v-1h1v-3l-1-1 1-1 1 1h1l1 1h1l1 1h2l1 1 1 1 1 1v1h1v2l1 1h2l-1 1v1h-1l-1 1h-1l-1 1h-2v1h-2v1h-1v1l-1 1v1l-1-1h-1v-1h-1l-1-1v-2h1v-1l-1-1Zm-10-20v-1h2l1 1v1l1-1h2l1 1h1v1h1v1l-1 1h-2l-1 1h-2v-3h-2l-1-1Zm1 6h-1v-1h2v1Zm-6-6h3v1l1 1h-1v1h-1l-1-1v-1h-1Zm3-2h-6v-1h1v-1h2l1 1 1-1v1h3l-1 1Zm-15-9h1v1l1 1v2h1l1 1v1h1-1l-1 1-1-1h-3l-1-1v-1l-1-1v-1h2v-1Zm-16-5h-1v2l-1 1h-3v-1h-2v-2h1v-1h1l1-1h3v1Zm-13 3 1-1h1v-1h1l-1 1v1h-1v1h-1v-1Z" id="Hawaii" class="adm ssc-1-4"/><path d="m520 145 1-1 1-1h2-1v2h-1v1h1v2h1v1l1 1 1 1v2h1v1l1 1 1 1h1l1 1-1 1v1h1l1 1h-1l-3 1-3 1-1-4-2-6-2-6Z" id="Delaware" class="adm ssc-1-4"/><path d="M560 107h1v3l-1-1v-1Zm0 1v2h-1l1-2Zm-7-4 4-1v2h1v1h1l1 1v1h-1v-1h-1v3l1 1h-1v1l-1 1h-1l-1 1v-2l-1-3Z" id="Rhode Island" class="adm ssc-1-4"/><path d="m461 187-3 3-1 1-1 1-3 1 1 1-1 1-1 1v1h-1l-1 1v1h-1l-2 1v1h-2l-1 1-3 1h-6l-4 1h-10l-3 1h-6l-5 1h-11l1 1v2h-14l-1 1v-2l1 1h1v-3h1l-1-1 1-1v-1h-1v-3l1-1h1l2 1h2v1h1l1-1-1-1v-3h1l1-1h2v-1h-1v-2l1-1v-1l1 1 1-1h-1v-1h3v1h1v-1l-1-1h3l2 1h1v1h1v-2h1l1-1 1 1h2v-2l1-1 1-1v-1 1h1v1l1 1h2v-1h1v-3l1-1v1l1-1v-2h1l1-1v-3h3l1-1h1v-1h1v-1h-1v-1h1l-1-1 1-1v-1h1v1h2v-1l1 1h1v1l1 1v1h1l1 1 1-1h1l1 1v1h2v-1h3l1 1v-1h1l1-1h1l1-1v2l1 1h2v2l1 1v2h-1l1 1 1 1h1l-1 1h1l1 1v1l1 1h1v1h1l1 1Zm-81 23v-1h1v1Z" id="Kentucky" class="adm ssc-1-1"/><path d="M469 141v1h-1v1l1 1v4h-1l1 1-1 1v6h-1l-1 1v2h-1v1h-1v1h-1v-1h-1l-1 1v1h-1v3h-1l1 1v1h-1v1h-1l1-1-1-1h-1v1l-1 1v4h-1v3h-3v-1h-2l-1-1v-2l-1 1h-1l-1 1h-1v1l-1-1h-3v1h-2v-1l-1-1h-1l-1 1-1-1h-1v-1l-1-1v-1h-1l-1-1v1h-2v-1h-1v1l-1-5v-5l-1-7-1-7v-2l-1-6v-4l4-1 6-1h4l1 1h2l1 1h1l1-1v1l1-1v1h-2v1h6l1-1h1l1-1h3l1-1 1-1v-1h1v-1l1-1h1l1-1h1l1-1 1-1h1l1-1 1 4 1 6 1 5Z" id="Ohio" class="adm ssc-1-0"/><path d="M397 85v-1h1v1h-1Zm-35-20v-1 1Zm-2 1 1-1v1h-1Zm-1 0h1-1Zm0 2 1-1h1l-1 1h-1v1Zm3 3h1l1 1 1 1v1l7 1 3 1 3 1h2v1l1-1 1 1v-1l1 1h2v2h2l1 1h1l-1 1h1l-1 1 1 1h-1v2h1l1-1v4h1v2h-2v2h-1v3l-1 1h1l1-1h1v-2l1-1 1-1h1v-2h1v-2h1v-1l1-1v1-1h1v1h-1v3l-1 1v1l-1 1v2l-1 1v3l-1 1h1v2h-1v2h-1v3l1 1v1l-1 1v2l-1 1v2l1 1h-1l1 1v4h1v4h-3l-2 1h-14l-3 1h-7v-2h-3l-1-1v-2h-1v-4l1-1-1-1h-1v-4h-1v-1l1-1-1-1-1-1-1-1h-1l-1-1v-1h-1l-1-1v-1l-1-1h-1l-1-1h-1v-1l-1-1h-3v-1l-1-1v-8l1-1v-1l-1-1h-2v-1l1-1v-1l1-2h1v-1h1l1-1h1v-9 1l1-1v-1l1 1h2l2-1h1l1-1h1l1-1h1l1-1h2v2l-1 1v1l-1 1h1l1-1h1l1 1h1Z" id="Wisconsin" class="adm ssc-1-4"/><path d="m110 58 1 1v2h1v1h1v3l-1 1-1 2-1 1v1l-1 1-1 1v1l-1 1v1h-2v1l-1 1-1 1v1h-1v1h1l-1 1h1l1 1h1-1l1 1v1h-1v1l-1 1v2l-2 6-1 4-1 6-1 3-1 5-6-1-5-2h-3l-2-1-5-1-7-2h-1l-3-1-7-2h-2l-1-1-6-1-5-2h-3l-3-1-1-1h-2l-3-1h-1l-2-1-2-1h-1v-6l1-1v-5l1-1v-1l1-1 1-1v-2h1l1-1 1-1v-2l1-2 1-1 1-2 1-2v-1l1-1v-1l1-2v-2l1-2 1-1v-1l1-1v-2l1-1v-1h1v-1h-1l1-2v-2l1-1v-1l1-1v-2l1 1h1v1l2-1 1 1v-1 2h3v1h1v8h1l1 1h1v1h3v-1h5l1 1h1l1 1v1h1v-1l2 1h1l1-1h2v1h2l1 1v-1h6v-1l1 1h5l5 1 4 1 5 1Z" id="Oregon" class="adm ssc-1-4"/><path d="M304 81h-24l-4-1h-19l-7-1h-7l-6-1h-5l1-8v-4l1-7v-6l1-7v-4l1-6 5 1h14l5 1h13l4 1h21v2l1 1v10l1 2v1l1 1v5h1l-1 1h1l-1 1 1 1v9l1 1v1l1 1v4Z" id="North Dakota" class="adm ssc-1-1"/><path d="m373 231 1 1-1 1-1 1v-1h-1l1 1h-1l1 1h-1v-1 1h-1 2v1h-1v-1l-1 1v1h1v1h-1l1 1-1 1v1h-1v-1l-1 1h1-1v1h-1v1h1-1v2h-1l1 1h-1v-1l-1 1h1l-1 1 1 1v1h-1v1l1-1v1h-2l1 1-1 1v1h1v-1 1l-1 1h1l1-1-1 2v1l1-1v3l-1-1-1 1h1v1h-4l-5 1h-24v-7h-1l-1-1v1h-2l-1-1v-25l-1-7-1-5v-3h20l4-1h18l7-1v2h1l-1 1h1-1v1l-1 1-1 1v1h-1 8l1 1h-2v1h1l-1 1-1 1v-1l-1 1 1 1h1-1v2l-1-1v2h-1v-1 1h-1v1h1v-1 2h-1 1v1l1 1h-1l-1 2h-1Z" id="Arkansas" class="adm ssc-1-1"/><path d="M403 134h7l3-1h5l5-1 1 1v4l1 6v2l1 7 1 7v5l1 5-1 1 1 1h-1v1h1v1h-1v1h-1l-1 1h-3v3l-1 1h-1v2l-1 1v-1l-1 1v3h-1v1h-2l-1-1v-1h-1v-1 1l-1 1-1 1v2h-2l-1-1-1 1h-1v2h-1v-1h-1l-2-1h-3l1 1v1h-1v-1h-3v1h1l-1 1-1-1-1-1h1v-2h1l-1-1h1v-1h-1l1-1h1v-2h1v-2l1-1v-1h1v-2h-1v-3l-1-1v-3h1l-1-8v-4l-1-4v-5l-1-7v-5l1 1h2l1-1 2-1Z" id="Indiana" class="adm ssc-1-1"/><path d="M305 115V89l-2-1h-1v-1l-1-1v-1l1-1h1v-1h1v-7l-1-1v-1l-1-1v-9l-1-1 1-1h-1l1-1h-1v-5l-1-1v-1l-1-2V42l-1-1v-2h19v-5h2l1 1 1 2v5l1 1h3l1 1h3l1 1v1h1l1-1h1v-1h4l3 1v1h2v1l1 1v1h1v-2h2v1l1 1h2v1l1 1h4l1-2h1l1-1v1l1 1h7v1h4-1v1h-1l-1 1-2 1-2 1h-2l-1 1v1l-2 1-2 2v1h-1v1h-1v1l-1 1h-1l-1 1v1h-1v1l-3 2h1v1l-1-1v1l-1 1v-1 9h-1l-1 1h-1v1h-1l-1 2v1l-1 1v1h2l1 1v1l-1 1v8l1 1v1h3l1 1v1h1l1 1h1l1 1v1l1 1h1v1l1 1h1l1 1 1 1 1 1-1 1v1h1v2h-20l-6 1h-23Z" id="Minnesota" class="adm ssc-1-4"/><path d="M536 108h1l4-1 2-1v1-1h3l4-1 3-1 1 5 1 3v2h-3v1h-1l-1 1h-3l-1 1h-2v1l-1 1h-1l-1 1h-1v1l-1 1h-1v1-1l-1-1 2-2-1-1-1-4Z" id="Connecticut" class="adm ssc-1-4"/></g><g id="United States of America-img" style="pointer-events:none;will-change:opacity"><image width="100%" height="100%" href="data:image/svg+xml,%3Csvg xmlns='http://www.w3.org/2000/svg'%3E%3Cpath d='M400 293v1h-5l-1-1v1h-3l-2 1v-1h-1l1 1-1 1-1 1h-3v1-1h-1l-1-1-1 1v-1l-1-1h-2l-1 2h-1v3h5v-1h1v-1l1 1 1-1v1h-1v2h1v1h1l1-1v-1l1-1v1h1v1h1v1h-1v1h-1l1 1-1-1h-2v1h1l-1 2 2 1v1h2v1l1-1v1h1v-1l1 1v1h1l-1 1v2h-1v-1l-1 1-1 1 1-1v-2l-1 1v-1l-1-1h-2v-1l-1 1v-1h-1 1l1-1v1-1h-3v-1h-1v1l-1-1h-1l-1-1v1l1 1h1v2h-1v1h1l-2 2v-1l-1-1h1l-1-1h-1l-1-1v1h-2v2l-1 1v-1 1h-2v-1h-4l-1-1h-1l1-1h1l1 1v-1l-1-1h-1v-2h1v-1l-1 1v1h-2v-1l-1 1v-2h-1v-1h-3v-1h-2l-1 1h-1v1h1v1h1-1l-2 1h-2l-2-1h-2l-2-1-1-1h-8l-1 1h-1v-1h-1l2-1v-2h-1v1l-1 1v1l1 1h-2l-1 1-4 2-2 1h-1v1h-1l1-1v-1h2v-1l-3 1 1-2v-1l-1-1v1h-1v1h-1v-1h-1l1 1h-1l1 1h-1l1 1v1h1v2h-2v1l-1 1v-1 1l-1 1v1l-1 1-1 1h-1l-2 1-1 1h-3v1h1l-3 1-1 1 1-1h1l1-1h-2l-1 1v-2h-1v1h-1v-1h-1v1h1l-1 1v-1l-1 1v-2h-2l1 1v1h1v1h1l1 1h-1l-1 1h-2v-1h-2v1h1v2h-1v1h-1v-2 1l-1 1v-1l-2 1v1h2l-1 1-1 2h-1v-1h-1l-1 1-1-1v1h1l1 1v1h1v1l-1 1v1l-1 1v1h-1v-1l-1 1h-1l-1-1v1h1v1h3v1l-1 1v1l-1 1v2h1v3l1 1-1 1h1v1l1 2v2h1v2h-2v1h-2v-1l-1-1h-2v-1h-6v-1h-1l-1-1h-1l-1-1-1 1-1-2h-2v-1h-2v-2h-1v-2l-1-1v-1h-1v-2h-1v-4h-1v-2l1-1h-1v-2h-2v-1h-1v-1h-1v-2h-1v-1l-1-1v-1l-1-1h-1v-1h-1v-3h-1 1-1v-1l-1-1v-3l-1-1h-1v-3h-1v-2h-1v-1h-2v-2h-1l-1-1h-1 1l-1-1v-1h-1v-1h-1v-1 1h-1v-1 1l-1-1-1 1-1-1h-4v-1h-2l-1 1h-4v2l-1 1-1 1v2h-1l1 1h-1l-1 1v1h-1v1h-3v-1h-1l-1-2h-2l-1-1-1-1h-2l-1-1-1-1v-1h-2v-1l-1-1-1-1v-2l-1-1v-5h-1v-2h-1v-3h-1v-1l-1-1h-1v-1h-1l-1-1-1-1v-1h-1v-1l-1-1h-1v-1h-1v-2h-1v-1h-2v-1l-1-1-1-1v-2h-1v-1h-1l-4-1h-6l-4-1h-6v6l-6-1-4-1h-5l-4-1-8-1-4-1h-3l-3-2-4-2-5-3-7-4-3-2-5-3-4-2-5-3-4-3 1-1v-1h1l-7-1-5-1-6-1h-5l-5-1 1-1v-1l-1-1-1 1v-1l1-1h-1l1-1v-3l-1-3-1-1-1-1v-1h-1v-1l-1-1-1-1-1-1-1-1h-2v-3l-1-2h-3v-1h-1l-2-1-1-1v-2l-1-1-1-1h-1v-1h-3l-1-1-1-1h-3l-2-1v-1l-1-1 1-1v-3l1-2v-2h-1l-1-1v-1l1-1v-1h-1l-1-1v-1l-1-1v-1h-1v-2l-1-1v-3h-1v-1l-1-2-1-1v-5h2l1-2v-2l-1-1h-2l-1-1v-2h-1v-2l1-1-1-2v-2l1-1v-1l1-1v4h1v1l1 1h1-1v-4h-1v-4h2l-1-1-1-1h-1v4h-1l-1-1h-1v-2l-1-1h-1l1-1v-3h-1v-3h-1v-1l-1-2-1-1v-1l-1-1v-2h1v-7l1-1v-6l-1-1v-1l-1-1-1-1v-4h1l1-2 1-1h1v-1l1-1 1-1-1-1 1-1v-1l1-2 1-1v-4l-1-1h1v-2l1-1h-1v-6l1-1v-5l1-1v-1l1-1 1-1v-2h1l1-1 1-1v-2l1-2 1-1 1-2 1-2v-1l1-1v-1l1-2v-2l1-2 1-1v-1l1-1v-2l1-1v-1h1v-1h-1l1-2v-2l1-1v-1l1-1v-2l1 1h1v1l2-1 1 1v-1h-1l-1-1h-2l-1-1-1-1 1-2 1-2v1l-1 1v2h1v-1h1v-3h1-1l-1-1v-2h3l-1-1v-1h-2v1-2l1-2v-1h-1v-1l1-2v-4l-1-1v-5l1-1V8h1l1 2 1 1h1l1 1 1 1h2l1 1h1v1h3v1h2v1-1h1v4l-1 1-1 1 1-1-1-1v1l-1 1-1 1-1 1h-1v2-1l1-1 1-1h2l1-1 1-1 1-1v-1 3h-1v4l-1 1v1h-1v-1h-1v1l-1 1v-1l1-1v-1l-1 1v2l1 1 1-1 1-1 1 1v-1h1v-4h1-1v-1h1v-1l1-1 1-1 1-1-1-1v-2h-1v1h-1v-1l1-1 1 1v-2h-1v-1h-1v-1h1l1 1v-2h1l-1-1 1-1V8h-1v1h-1l1-1h-1V6l1-1 5 2h3l5 2 4 1 7 2 5 1 6 1 6 2 5 1 4 1 5 1 4 1 7 1 5 1 6 2h3l7 1 5 1 7 2 7 1h4l4 1h3l7 1 4 1h5l4 1 5 1h8l7 1 5 1h6l5 1h14l5 1h13l4 1h40v-5h2l1 1 1 2v5l1 1h3l1 1h3l1 1v1h1l1-1h1v-1h4l3 1v1h2v1l1 1v1h1v-2h2v1l1 1h2v1l1 1h4l1-2h1l1-1v1l1 1h7v1h4-1v1h-1l-1 1-2 1-2 1h-2l-1 1v1l-2 1-2 2v1h-1v1h-1v1l-1 1h-1l-1 1v1h-1v1l-3 2h1v1h2l2-1h1l1-1h1l1-1h1l1-1h2v2l-1 1v1l-1 1h1l1-1h1l1 1h1l1-1h2l1-1 1-1 1-1h4v-1l1-1 1-1h2v-1l1-1h1v-1l1-1h1v-1l2-1 1-1h4v1h-2v1h-1l-1 2h-1l1 1h-1v1h-1v4l1-2h1l1-1-1 1h5l1 1v1h1v1l1 1 1 1h1v-1l1 1v-1h1l1 1h1v-1l1 1 1-1 1-1h1l1-2h6l1-1 2-1h2v2l1 1h-1l1 1h2l1-1 1 1 1-1h2v-1h1v2l1 1v1h-1l-1 1h3l-1 1 1 1h1l-1 1-1-1v1h-3v-1l-1 1v-1h-1v1l-1 1 1 1h-1l-1-1h-1v-1h-3l-1-1h-1l-1 1v1h-2v1h-4l-1 1v2h-2v2h-1v-1l1-1v-2l-1 1h-1v1l-1 1h-1v-3 1l-1 1v2h-1v1l-1 1v2l-1 2-1 1v3h-2v2h-1v3l-1 1h1l1-1h1v-2l1-1 1-1h1v-2h1v-2h1v-1l1-1v1-1h1v1h-1v3l-1 1v1l-1 1v2l-1 1v3l-1 1h1v2h-1v2h-1v3l1 1v1l-1 1v2l-1 1v2l1 1h-1l1 1v4h1v8l1 1 1 1v1l1 2v1h1v1l1 1h2l1-1 2-1 1-1 1-1 1-1v-1l1-2 1-1v-2l1-2v-5l-1-2v-1l-1-2-1-1v-1l-1-2-1-1v-1l1-1v-3l-1-1v-1l1-1v-1l1-2v-5h1v-3h1v-1l1 1 1-1v-1l1-1v-1h1-1v1l1 1h-1v1l1 1h-1v2h1v-3h1v1l-1 1v1h1v-1l1-2v-2l-1-1v-1l1-1 1-1h2v-1h-1v-1l-1-1 1-1 1-1h-1l1-1h2l1 1h4l1 1v1h2l1 1h3l1 1v1l1 1 1 1h-2v2h2v6l1 1v1h-1v1h-1v2l-1 1v1h-2v5h2v1l1-1 1-1v-1l1-1v-1l1-1 2-1 1-1h1l1 1 1 1v1l1 1v3l1 1v1l1 2v2l1 1v6h-2l1-1h-2v4l-1 1h-1v4h-1v2h-1v1h-1v2h1l1 1h2l1 1h1l1-1v1l1-1v1h-2v1h6l1-1h1l1-1h3l1-1 1-1v-1h1v-1l1-1h1l1-1h1l1-1 1-1h1l1-1 2-1 1-1h1v-1l2-1v-1h1l1-1 1-1 1-1 1-1 1-1h1v-2h1v-1l1-1v-1h-1v-1h-1v-1h-1v-3l2-1 2-1h1l1-1h7l1 1h1v-1h2l1-1h3l1-1 1-1v-1h1v-1l1-1h2v-2l-1-1v-1h-1l1-1h1v-1h-1v-1h-1 1l-1 1v-1h-1v-2h1v-1l1-1 1-1 1-1v-1l1-2 1-1 2-2v-1l1-1h1l1-1v-1h2l2-1h3l3-1h2l3-1 2-1 4-1h1l3-1 3-1 4-1v-1l1-1-1-1h1v-1h2v-1h2v1l1-1v-1h-1v-1h2l-1-1v-2l1-1v-1h1v-2l1-1h-1v-3h-1v-1l1-1v-2h1l-1-4 1-3 2-6 1-3h2v2h1l1 1h1v-1h1l1-1v-1h2l-1-1h3l1 1h1l1 1h1l2 6 1 5 1 4h1l-1 1 1 1v2h4v2h1v2l1 1 1 1v-1h1l1 1h1v2h-1l1 1v-1h1v1l-1 2v1-1l-1 1v-1l-1 1h1l-1 1h-1v1l-1 1-1-1v1l-1-1v1l1 1h-1v1h-1v1l-1-1v-1l-1 1h-1 1-1v1h-1l-1 1h1v2l-1-1h-1l-1 1v-4h-1v2l-1 1h1v1l-1 2v1h1l-1 2v1h-1v-1 1l-1-1v2l-1 1v-1l-1 1v-1h-1v1h-1v-3 1l-1 1h1l1 2v1l-1-1h-1v1-1h-1l-1 1v2l1 1-1 1h-1v1h1v1h-1v1l-1 1v4l-1 2 1 1v1l1 1 1-1v2l-2 1v2h-1 1l-1 1 1 1 1-1h1l1 1 1 1v2h2v2h3l1-1h1v-2h-1v-2h-1l-1 1v-1h2v1h1l1 2v2l-1 1h-2v1-1l-1 1-1 1-1 1v-2l-1-1v1h-1v1h-1v2h-2v1l-1-1v-2 1h-1v-1h-1v3l1 1h-1v1l-1 1h-1l-1 1v-1 1h-3v1h-1l-1 1h-3l-1 1h-2v1l-1 1h-1l-1 1h-1v1l-1 1h-1v1h-1v2l-1 1v1h-1v1l-1 1v1h-1v1h3l1 1v5h-1l1 1v1l-1 1v1h1v1h-1v1h-1l1 1h-1v2h-1 1l-1 1v1h-1 1l-1 1v1l-1 1h1v1l-1 1-1 1v-4h-4v-1h-2l-1-1h-1v-1l1-1h-1v-3h1-1v2h-1v1h1v2h1v1l1 1 1 1v2h1v1l1 1 1 1h1l1 1-1 1v1h1l1 1h-1v2h1l-1 1v1h-1v2l-1 1v3l-1 1v2l-1 1-1 2h1l-1 1v3h-1v-6l1-2v-1h1-1l1-1v-1h-1 1v-1h-1l-1 1h-1l1-2h-1v-1l-1 1v-1h1v-1h-1v-2 2h-1v-1 2l-1-1h-1v-1h-1l-1-1 1-1h-1v-1h3-1l-1-1-1-1v1l-1-1v-1h2-1l1-1h-1v-1h-1v2-3 1h1v-2h-1v-3l1-1h1v-3l-1 1-1 1h1l-1 1v1h-1v-1l-1 1v2h-1v1h1v1l1 1h-1l1 1h-1v3l1 1v2l1 1 1 1v2l1 1v1-1h-1v-1 1h-1v-1h-5v-1l-1-1-1 1h-1l-1-1v-1l1-1h-1v3l1 1h1v-1h1v1h1v1h2l1 1v-1h1v1h1v1h3v1h1v1h-1v1l1 1h-1 1l-1 1h-2v-1l-1-1h-1l-1-2h-2 1v1h1v1h1l1 1 1 1h3v1h-1 2v3l-1-1h-1l1 1v1h-2l-1-1-1-1 1 1 1 1h2v1h1l1 1v1h-1v1l-1-1-1-1h-1v-1h-4l1 1 1-1 1 1v-1 1h1v1h1v1h1v1h2v-2l1 1h1l1-1 1 2v1l1 1 1 1 1 2v2l1 1 2 2 1 2h-1v-1l-1-1-1-1v-2l-1-1-1-1-1-2v-1h-1v1h1v1h-1v-1 1l1 1h1v2l1 1 1 1h-1v-1h-1v1l-1-1h-1v-1l-1 1h1l1 1-2 1h-1l-1 1v1h-3v-2h-1v1h1v2h2l2-1v1l1-1 1-1h1v1h1v3h1v-1l-1-1h1l-1-1h1l1-1 1 2v1h1-1v1h1l-1 1h-1v2h-1v2h-1l-1 1-1-1h-2l-1-1h1v-1l-1 1h-1 1v2h-1v-1h-4 1v1h5l1 1-1 1v2l-1 1-1 1-2-1v1h3l1-1h1v-1h1v1h2-1v1l-1 1v2h-1v-1 1l-1-1h-1l1 1h-2l-1 1h-2v1h-1v1l-1 1-1 1-1 1-1 1-1 3-1 1h1l-1 2v2-3 1l-1 1h-2l-2 1h-1v1l-2 1h-1l-1 1v2l-1 1-1 1v3h-1 1v2l-1 1h-1l1 1h-3v1l-1 1h1l-1 1h-1v1l1-1-1 1h-1v2h-1v1h-1v1h-1l-1 1-1-1v1h-2l1 1h1l-1 1h-1v2l-1-1-1-1h-1l1 1v1h1v2h-1l-1 1h1v1l-1 1v-1 2h-2v2l-1 1h1v1l-1 1h1v1l-1 1v-1 2h-1v4h-1 1l-1 1h2v3h-1l1 1v2h1v3l1 2 1 2v2l1 1v1h1v1l3 4 1 2 1 1 1 2 2 2 2 2 1 1-1 1v3l1 1 1 2 1 1 1 2-1-1v-1h-1v-1l-2-2v-5h-1v2h-1v-3h-1v-1 2l1 1v1l1 1 1 1 1 2 2 3 1 1v1l1 2 1 1 1 3h1l1 2 1 2v2l1 1v12l-1 1v2l-1 1 1 1v1l-1 1v1h1v-1l1-1-1 2h-3l-1 1h-2l-1 1h-2v1l-1-1v-2h1v1h2v-1h-1v-1l-1 1v-1h-1l-1-1v-1h-1v-1l-1-1-1-1-1-1h-4v-1h1-1v-1h-1v-2l-1-1v-2h-2v-1l1-1 1-1h-1v1l-1 1h-1v-1h-1v-1l1-1-1-1v-1h-1v2h-1l-1-1v-1h-1l-1-1-1-2v-2l-1-1h-1v-1l1-1h-1 1v-2h1v-3h-1v2-1l-1-1-1-1-1 1 1 1h1v2l-1 1v-1h-1v-1h-1v-7l1-1v-3l-1-1h1l-1-2h-1l1-1-1-1v-1h-1v-1h-4v-1h-1v-2h-1l-1-1h-1v-2h-1v-1h-2v-2h-1l-1-1h-2l-1-1h-2v1-1h-1v1h-1v1h-1l1 1h-2l-1 1-1 1h-1l-1 1h-1v1h-3l-1 1v-3h-1v-1h-2l-1-1-1-1h1l1 1v-1h-2v-1h-1 1v-1h-2v1-1h1v1l1 1h-1l-1-1h-1l-2-1h-2l-1-1h-2 2l1-1 1 1v-1h-4l-1 1-2 1h-3l1-1-1-1h-1v1-1h-1v-1 3h-1v1h-1l-1 1h-1 1v-2h1v-1h-1v2h-1v1l-2 1h-3 1l1-1-1-1h-1v-4h-1l-1 2v3h-1l-1-1h-1Zm134-87h1l1-1-1 1Zm-3-39-1 2v-1l1-1Zm-3 7v1-1Zm-2 4h1l-1 1h1l-1 1v-2ZM357 308v-1h1v-1h1v1h2l-1 1h-1Zm68-235 1-1v1-1h1v-1h1v1h1v2h-1v-1l-1 1h-1Zm-6 3h1l1 1h-2Zm-9 1h1l-1 1Zm-1 3v-1l1-1v1l1 1-1 1h-1Zm-3 7h1v1h-1Zm-1 2 1-1v1Zm-7-21v1Zm-26-16 1-1 2-1h1v-1h1v-1h2l1-1v1l-2 1v1h-1l-1 1-1 1-2 1Zm199 58 2-1h1v1h-2Zm-6 1v-1l1-1 1-1v1h1v1h-1l-1 1h-1Zm-76 252h1l-1 1Zm6-2h-1v-1Zm-2 1v-1Zm0 0-1 1h-1l1-1Zm-2 1h-1 1Zm-10-25 1 1h-1Zm-43-39h2v1h-1Zm43 37h1v2l-1-1v-1h-1v-1h1ZM62 28v1Zm-1 1 1-1-1 1Zm0 0v1Zm5-12v1-1l1 1v2h-1v-1l-1-1v-1h1v-1h-1l-1-1 1-1h1v-1h1v2h-1v2Zm-2-5v-2l1 1v1Zm1-4 1 1v1h-2V9Zm-2 1 1 1-1 1h-1v-1ZM47 36v-1Zm17-19h1v1h-1Zm1 7h-1v-2l1 1Zm-2 3 1-1v1h1-2Zm257 288v-1l2-1 1-1h1v-1h1l-1 1-3 2Zm-28 29v1l1 1v2-1l-1-1v-1Zm0-3 1-1v-3l1-2v2l-1 2v2Zm10-14h-1l-2 2 1-1h-1l1-1h1v-1h2l2-1h-1l-1 1Zm-3 2-1 1-1 1 1-2 1-1Zm-4 29h-1l1-1v-1 2ZM54 224l1 1h1v2-1h-1v-1l-1-1Zm-2 6h1v1l1 2h-1v-1l-1-1Zm-10-6h1l1 1h-1l-1-1Zm1-11h1v1l1-1v1h-3l-1-1v-1h1v1Zm-4 1h-1v-2h1l1 1v1Zm-4-3h2v1h-1v-1Zm498-80v-1h1v-1l1-1v2l-1 1Zm7-7v-1h2l1-1h1l1-1h2l1-1h1v-1h1v-1 2h-1v1h1l-1 1v1h-2v1h-2v1h-2v1h-1v1h-2l-1 1h-2v1h-2v-2h1v-1h1v-1l1-1v1-1l1-1Zm14-6 1-1h1-1v1l-2 1-2 2h-1v-1h1v-1h1v-1h1v1ZM-12 356h1v1h-1v-1Zm-2 2v-1h-1 1v1h1v1Zm0-3Zm-1 0v1Zm-3-1h1v-1h1v1h-2Zm-3-4h1-1Zm-6-4v1h1v-1 1h-1Zm1-1v-1h-1v1-1h-1v-1h1v1h1-1 1v1Zm153 2h1-1Zm-1 0v-1h1v1h-1Zm-3 1h1v1h-1Zm-3-6h1v-1h1l-1 1h1-2Zm1 4Zm0 1h-1l1-1h-1 1v1Zm0 0v1-1h-1 1Zm-1-3h-1v-1h1v1l-1 1v-1Zm0-2 1 1v1-1h1v1h1v1h1-1v1-1h1v1h1-1 1v1l1 1h-1 1v1h-1v-1h-1v-1h-3 1v-2l-1 1v-2h-1v-1h-1v-1h1Zm3 5v1-1Zm-1 0v1h1v1h1-2v-2Zm0 0-1 1v-1 1-1Zm-1-2h-1 1Zm0 0-1-1h1v1Zm-1 1v1-1Zm-1-1Zm-1 0Zm-1-5v1-1 1h1v1-1 2h1-1 1-1l1 1h-1v-1 1-1h-1 1v-1h-1v-1h-1Zm1-1h1v1-1h1v2-1h-1l1 1v1h-1v-1h-1v-1 1-1h-1v-1h1Zm2 1h1v1h-1v-1Zm-4-3h1l-1 1h1-1l1 1h-1v1h-1v-3h-1v-2h-1v-1l1 1h1l1 1v1h1-1v-1l-1-1v1Zm-3 2v-1 1-1l1 1h1v2h1v2h1l-1 1h1-1v-1h-1v-1h-1v-1l-1-1h1-1v-1h-1 1Zm-1 1h1v1h-1 1v-1Zm0 0h1Zm-3-3 1-1v2-1h-1Zm3-1h2-1v1h1-2 2v1h-2v1h1-2v-1h-1v-2h1v-1h1v1Zm-24-4h1v-1 1h-1Zm-4-2v-1h1l-1 1Zm-1 0h1l-1 1v-1 1-1Zm-2-1Zm1 2v-1 2h-1v1l-1 1v-1h1v-2h1Zm-2 0v-1h1v1h-1v1-1Zm0-2Zm0 4v-1 1Zm-1-2h1-1Zm1 1v1Zm-1 1h1v-1 1Zm-5 3h-1 1Zm-3 6v-1 1Zm-1-11h1-1Zm0 7Zm-3 4h1v1h-1v-1Zm1-1h1-1 1v-1 1h2v1h-2v1h-1v-1h-1 1v-1Zm1-1h1-1Zm-2-4Zm-2 14v-1 1-1 1Zm0 0h1-1Zm-2 0h1Zm1 0Zm0-4v-1h1v-1l1 1v1-3l1 1h1l-1-1h1-1 2-1v1l1-1v1-1h1v1h-1 1l-1 1h1v1l-1-1h-1 1v1h-1v1h-2 1v1h-1v1h-1v-1h1v-1l-1 1v-1h1-2 1v1h-1v-2Zm3-2v-1l1 1Zm1 3v1h-1v-1h1Zm-7 6v1-1Zm-4-3v-1 1Zm-6 7Zm-1 0v-1h1v1h-1 1Zm0-1Zm-2 1 1-1h-1 1v-1 2h-1Zm0-2v-1h1v1l-1-1Zm0 0Zm-1 1v-1 1-2 1h1-1 1Zm1-17v-1h1l-1 1Zm-4 16v1Zm-1 2h-1v-1h1Zm4-42v-1 1Zm0-1h1v1h-1Zm-6 44 1 1h-1v-1Zm-4-3h2v1h1-1l1 1h-3v1h-2v-1h1v-1l1-1v1Zm-3 4h1-1Zm-1 0h1Zm0-1v1-1Zm-1 1h-1v-1h1v1h1-1Zm-1 1Zm7-29h-2v1-1h-1v-1h-1v-1h2v-1 1h2v1Zm-11 31h-1v-1h2v-1h1l-1-1h3-1 1l-1 1h1-1v1h-3v1Zm75-32 2 1 1 1h1v1l1-1h1v-3h1l1-1h1v2h2v1h1l1 1h1l1 1h-1 1v1h1l1 1v1h1l1 1v1h1v1h1v1h4v1h1v-1l1 1v2h1v4h-2v-1h-1v-1h1l-1-1v-1l-1-1h-1v1h-1 1v2h-1v-4 1h-1v-1h-1v-1h-2v-1h-1v-1 1h-1v-1h1-1v-1h-1v-1h1-1v-1 1h-1v-1h-1v-2 1h-2v-1h-1v-1l-1-1v-1h-1 1v1h-1v-1l1 1v1h1v2h1v1h-1v-1 1l-1-1v1l-1-1h1-1v-2 1l-1-1v1h-2v-1 1h2v1h1v1h-1 1-1v1-1 1h-1v-1 1l-1-1h-1v-1h-1v-1h-3v-1h-2v-3l1 1v1-1l-1-1v1h-1v1h-3v-1h-1 1-1v1l-1-1h-2l-1 1h-3v-1h-1v-1 1-1 1h-2v-1h-1v-1 1h-1v-1 1-1h1-2 1l-1-1h1-1v1-1h-1 1l-1 1v-1h-1v1h-1 1v-2l-1 1v1-1 1-1 2h-1 1v1h-1 2l-1 1v1-1h1v1h-1v1-1 1h-2v-1 1-1h-1v1h1-1v1-1 1h-1v1-1 1h-1 1-1v1h-1v1-1 1h-3v-1h1v-1 1h1v-1h1v-1h-1v1h-1v-3h1v-3h1v-1h1l1 1v-1h2v1-1h-2v-2h1v-1l-1 1v1h-3v1h-1v2-1l-1 1-1 1h1-1v1h-1 1v1l-1 1h-1 1v1h-1v-1 1h-1 1-1v1h-1v2h2v2h-2v1h1-1v1-1 1h-1v1-1 1h-2v1h-1v1h-2v3l-1-1v1h-1v1-1h-1v1h-1v1-1 1h-2v1l1-1v1l-1 1h1-1v-1 1h-2v1-1 1h-1v1-2 1h-2v1h-3v-1l1 1v-1h-1l-1 1h1-1v1h-1 1l-1 1v-1 1h-1v-2 2h-1v-1h-1l1 1h-1v-1h1v-1h1l1-1v-1h4v1-1h1v1-3h1l1-1h2v-1h1v-1h1v-1h1v-1h1v-3h1v-2l1-1v-1l-1 1h-3v-1l1-1v1-1h-1v2h-1l1 1h-1l-1-1v-1h-1 1-2v-1h-1v1h-2v1h-2v-1h1v-1h1v-1h-1v-1h1v-1h-1v-3l-1-1v2h-4v-2h-1v-1h-1l1-1h-1 1v-1h2l-1 1h2-1 1-1v1h1v-2h-3v-1 1-2h-1v1-2h-1 1v-1h-1 1v-1h-1 1v-2h1l1-1h1v-2h1v-1h2-1l1 1h1v-1h1l1-1h3v-3l-1-1v-1l1 1v-1h1l-1-1h-2l-1 1v1h-1v-2h-1v1h1-1l-1-1v1-1h-1v1l-1-1v1h-1v-1h-2v-4h1v1-1h-1l-1-1h-1v-1h1v-1h1l1-1h1l1 1v-1h-1 1v-1h4v1h-1v1h1l1 1v-1 1-1l1 1h2v-1h1v1-1l-1-1h-1v-1h-1v-1h1v2h2v1h1l1-1h-1v-1h-1v1h-1v-1h-1 1v-2h-2 1-2l-1-1v-2l-1-1v-1h-1v-1h-1v-1h-1v-1h1v-2l1 1h3v-1h1l1-1v-2h1v-1h1v-1h1-1 2l1-1h1v1-2h1v-1 1h2l1-1 1-1h2v1h-1v1h1v-1h1-1 2v1h-1 4v1h1v1h3v-1h1l1 1h2v1l1-1v1-1h1l1 1v-1l1 1h2v-1h3v1h2v1-1h1v3l1 3v4l1 5 1 3v1l1 3v1l1 3v2l1 3v4l1 2v1l1 4v3h1l1-1 1 1v-1l2-1v2h1Zm24 12v1h1v3-1l-1 1v-1 1-1h-1v-2l1-1Zm0 4h-1v-1Zm-3-4h-1v-1h1v1h1-1Zm0 0v1h-1v-2 1h1Zm-8-8v1l-1-1v1-1h1Zm-29-4Zm-6-2v1h-1v-1h1Zm-1 1Zm1 3h-1 1Zm-5 3v1h-1Zm-51 26v-1h2v1h-2v1h-1l-1 1v-1h1v-1h1Zm-4 1v-1 1Zm4-17h1-1Zm-4 17h-1 1Zm-1 0Zm-1 0h1v1Zm5-20v-1h1v1h-1Zm-7 21 1-1v1Zm-1 0Zm13-52v-1l1 1h-1 3v1h1v1h1l1 1h-2v1h-1v-2h-1v-1h-2v-1Zm-17 52v-1h1v1h-1Zm11-38h-1v-1l1 1 1 1ZM8 363h2-3v-1h1v1Zm-2-1H3v-1l1 1v-1 1h1l1-1v1-1h1v1H6h1-1Zm-5-1v1Zm0-1v1Zm0 2H0v-1Zm-3 0v-1h1v-1 1-1 1h1l-1 1h-1Zm2-1v1h-1l1-1Zm-4 0h1l1-1v1h-2v-1 1Zm-1-2v1h1-1v1-1 1-2Zm-2 0Zm-1 2h-1Zm-1 0Zm545-217v1Zm0 1-1 1 1-1Zm39-79v1h-1Zm-1 3h-1v-1l1 1h1Zm3-6v-1h1l1 1v1l-1 1h-1v-2ZM194 355l-1-2-1-2 1-1h1v-1h1v-3l-1-1 1-1 1 1h1l1 1h1l1 1h2l1 1 1 1 1 1v1h1v2l1 1h2l-1 1v1h-1l-1 1h-1l-1 1h-2v1h-2v1h-1v1l-1 1v1l-1-1h-1v-1h-1l-1-1v-2h1v-1l-1-1Zm-10-20v-1h2l1 1v1l1-1h2l1 1h1v1h1v1l-1 1h-2l-1 1h-2v-3h-2l-1-1Zm1 6h-1v-1h2v1Zm-6-6h3v1l1 1h-1v1h-1l-1-1v-1h-1Zm3-2h-6v-1h1v-1h2l1 1 1-1v1h3l-1 1Zm-15-9h1v1l1 1v2h1l1 1v1h1-1l-1 1-1-1h-3l-1-1v-1l-1-1v-1h2v-1Zm-16-5h-1v2l-1 1h-3v-1h-2v-2h1v-1h1l1-1h3v1Zm-13 3 1-1h1v-1h1l-1 1v1h-1v1h-1v-1Zm422-214v2h-1l1-2ZM397 85v-1h1v1h-1Zm-35-20v-1 1Zm-2 1 1-1v1h-1Zm-1 0h1-1Zm0 2 1-1h1l-1 1h-1v1Z' fill='none'/%3E%3C/svg%3E" style="pointer-events:none;will-change:opacity" class="contour-to-dup" filter-name="secondGlow"/></g><g id="svg-map-legend"><g id="United States of America ADM1-legend-group" transform="translate(514 227)"><text stroke-width="0" id="United States of America ADM1-legend-title" x="0" y="0" transform="translate(37 -38)" style="font-size:20px;font-weight:553"><tspan x="0" dx="0em" dy="0" id="United States of America ADM1-legend-title-0" style="stroke:rgba(255,255,255,.816)">Political</tspan><tspan x="0" dx="1.333em" dy="1.1em" id="United States of America ADM1-legend-title-1">    party</tspan></text><g><path fill="#a9c0deff" stroke="#000" d="M111 0h20v15h-20z"/><text text-anchor="start" dominant-baseline="middle" x="8.75" y="7.5" style="font-size:12px;stroke:rgba(255,255,255,.506);stroke-width:0">Light Democrat</text></g><g transform="translate(0 20)"><path fill="#306596ff" stroke="#000" d="M111 0h20v15h-20z"/><text text-anchor="start" dominant-baseline="middle" x="44.6" y="7.5" style="font-size:12px;stroke:rgba(255,255,255,.506);stroke-width:0">Democrat</text></g><g transform="translate(0 40)"><path fill="#667fafff" stroke="#000" d="M111 0h20v15h-20z"/><text text-anchor="start" dominant-baseline="middle" x="2.5" y="7.5" style="font-size:12px;stroke:rgba(255,255,255,.506);stroke-width:0">Heavy Democrat</text></g><g transform="translate(0 60)"><path fill="#eaa9a8ff" stroke="#000" d="M111 0h20v15h-20z"/><text text-anchor="start" dominant-baseline="middle" x="0" y="7.5" style="font-size:12px;stroke:rgba(255,255,255,.506);stroke-width:0">Light Republican</text></g><g transform="translate(0 80)"><path fill="#cc4731ff" stroke="#000" d="M111 0h20v15h-20z"/><text text-anchor="start" dominant-baseline="middle" x="35.85" y="7.5" style="font-size:12px;stroke:rgba(255,255,255,.506);stroke-width:0">Republican</text></g><g transform="translate(0 100)"><path fill="#eddc4eff" stroke="#000" d="M111 0h20v15h-20z"/><text text-anchor="start" dominant-baseline="middle" x="38.683" y="7.5" style="font-size:12px;stroke:rgba(255,255,255,.506);stroke-width:0">Undecided</text></g></g></g></svg><rect x="0" y="0" id="frame" width="650" height="369" rx="0"/><style>#static-svg-map, #canvas { display: block; height: auto; }#paths &gt; path { stroke: rgba(124, 73, 14, 0.627); stroke-dasharray: 5px; stroke-width: 2px; fill: none; }#outline { pointer-events: none; }#graticule { pointer-events: none; fill: none; stroke: #777777; stroke-width: 0.5px; stroke-opacity: 0.5; }.country { stroke-width: 4px; fill: #f3efec; stroke-linejoin: round; }.country:hover { fill: #f9f2eb; }.adm { stroke: #c4b8a3; stroke-width: 1px; fill: rgba(255, 255, 255, 0.816); stroke-linejoin: round; }.adm:hover { stroke: #fdfdfb; fill: #ecd6b6; stroke-width: 2px; }#tooltip { position: absolute; }path.ssc-1-0{fill:#eddc4eff;}
            path.ssc-1-0:hover{fill:#ffec54;}path.ssc-1-1{fill:#cc4731ff;}
            path.ssc-1-1:hover{fill:#db4c35;}path.ssc-1-2{fill:#eaa9a8ff;}
            path.ssc-1-2:hover{fill:#fbb5b4;}path.ssc-1-3{fill:#667fafff;}
            path.ssc-1-3:hover{fill:#6e88bc;}path.ssc-1-4{fill:#306596ff;}
            path.ssc-1-4:hover{fill:#346ca1;}path.ssc-1-5{fill:#a9c0deff;}
            path.ssc-1-5:hover{fill:#b5ceee;}path.ssc-1-6{fill:#aaaaaaff;}
            path.ssc-1-6:hover{fill:#b7b7b7;}
    #static-svg-map {
        
    }
    #static-svg-map, #static-svg-map &gt; svg {
        border-radius: 0%/0%;
    }
    #frame {
        fill: none;
        stroke: #b8b8b8ff;
        stroke-width:0px;
    }</style><script>
        function duplicateContours(svgElem) {
            Array.from(svgElem.querySelectorAll('.contour-to-dup')).forEach(el =&gt; {
                if (!el.hasAttribute('filter-name')) return;
                const clone = el.cloneNode();
                clone.setAttribute('href', el.getAttribute('href').replace(`fill='none'`, ''))
                clone.setAttribute('filter', `url(#${el.getAttribute('filter-name')})`);
                el.parentNode.insertBefore(clone, el);
            });
        }
        const allScripts = document.getElementsByTagName('script');
        // last script is current script
        const scriptTag = allScripts[allScripts.length - 1];
        const parentTag = scriptTag.parentNode;
        init(parentTag);
        console.log(parentTag);
        // init(mapElement)
        function init(mapElement) {
            duplicateContours(mapElement);
            
    let resizeTimeout;
    const contentSvg = mapElement.querySelector('svg');
    window.addEventListener('resize', e =&gt; {
        contentSvg.style.display = "none"; clearTimeout(resizeTimeout);
        resizeTimeout = setTimeout(() =&gt; { contentSvg.style.display = 'block' }, 300);
    });
            
    const parser = new DOMParser();
    const width = 650, height = 369;
    const frameElement = document.getElementById('frame');
    const tooltip = {shapeId: null, element: null};
    tooltip.element = constructTooltip({}, '');
    mapElement.append(tooltip.element);
    tooltip.element.style.display = 'none';
    const dataByGroup = {"data":{"United States of America ADM1":{"Mississippi":{"votes":"32"},"North Carolina":{"votes":"32"},"Oklahoma":{"votes":"32"},"Virginia":{"votes":"32"},"West Virginia":{"votes":"32"},"Louisiana":{"votes":"32"},"Michigan":{"votes":"32"},"Massachusetts":{"votes":"32"},"Idaho":{"votes":"32"},"Florida":{"votes":"29"},"Nebraska":{"votes":"32"},"Washington":{"votes":"32"},"New Mexico":{"votes":"32"},"South Dakota":{"votes":"32"},"Texas":{"votes":"32"},"California":{"votes":"32"},"Alabama":{"votes":"32"},"Georgia":{"votes":"32"},"Pennsylvania":{"votes":"32"},"Missouri":{"votes":"13"},"Colorado":{"votes":"5"},"Utah":{"votes":"32"},"Tennessee":{"votes":"32"},"Wyoming":{"votes":"32"},"New York":{"votes":"32"},"Kansas":{"votes":"32"},"Alaska":{"votes":"32"},"Nevada":{"votes":"32"},"Illinois":{"votes":"32"},"Vermont":{"votes":"32"},"Montana":{"votes":"32"},"Iowa":{"votes":"11"},"South Carolina":{"votes":"32"},"New Hampshire":{"votes":"32"},"Arizona":{"votes":"5"},"District of Columbia":{"votes":"NaN"},"New Jersey":{"votes":"32"},"Maryland":{"votes":"32"},"Maine":{"votes":"32"},"Hawaii":{"votes":"32"},"Delaware":{"votes":"32"},"Rhode Island":{"votes":"32"},"Kentucky":{"votes":"32"},"Ohio":{"votes":"32"},"Wisconsin":{"votes":"32"},"Oregon":{"votes":"32"},"North Dakota":{"votes":"32"},"Arkansas":{"votes":"32"},"Indiana":{"votes":"11"},"Minnesota":{"votes":"32"},"Connecticut":{"votes":"32"}}},"tooltips":{"United States of America ADM1":"&lt;div id=\"tooltip-preview-United States of America ADM1\" style=\"will-change: opacity; font-size: 14px; padding: 5px; background-color: rgb(255, 255, 255); border: 1px solid rgb(168, 168, 168); max-width: 15rem; width: max-content; border-radius: 7px;\" class=\"svelte-d50t4\"&gt;&lt;div&gt;\n    &lt;span style=\"display: block; text-align:center;\"&gt; &lt;b&gt; ${shapeId} &lt;/b&gt; &lt;/span&gt;\n   &lt;span style=\"font-size: 12px;\"&gt; Electoral votes: ${data.votes}&lt;/span&gt;\n&lt;/div&gt;\n    &lt;/div&gt;"}};
    function constructTooltip(data, templateStr, shapeId) {
        if(!data) return;
        const elem = document.createElementNS('http://www.w3.org/2000/svg', 'foreignObject');
        elem.setAttribute('width', 1);
        elem.setAttribute('height', 1);
        elem.style.overflow = 'visible';
        const parsed = parser.parseFromString(eval('`' + templateStr + '`' ), 'text/html').querySelector('body');
        elem.appendChild(parsed);
        return elem;
    }
    mapElement.addEventListener('mouseleave', hideTooltip);

    function hideTooltip() {
        tooltip.element.style.display = 'none';
        tooltip.element.style.opacity = 0;
    }

    function onMouseMove(e) {
        const parent = e.target.parentNode;
        if (!parent?.hasAttribute?.("id")) return hideTooltip();
        const mapBounds = frameElement.getBoundingClientRect();
        const transformX = width / mapBounds.width;
        const transformY = height / mapBounds.height;
        const ttBounds = tooltip.element.firstChild?.firstChild?.getBoundingClientRect();
        let posX = (e.clientX - mapBounds.left + 10) * transformX, posY = (e.clientY - mapBounds.top + 10) * transformY;
        let tooltipVisibleOpacity = 1;
        const groupId = parent.getAttribute('id');
        const shapeId = e.target.getAttribute('id');
        if (ttBounds?.width &gt; 0) {
            if (mapBounds.right - ttBounds.width &lt; e.clientX + 10) {
                posX = (e.clientX - mapBounds.left - ttBounds.width - 20) * transformX;
            }
            if (mapBounds.bottom - ttBounds.height &lt; e.clientY + 10) {
                posY = (e.clientY - mapBounds.top - ttBounds.height - 20) * transformY;
            }
        }
        else if (shapeId &amp;&amp; groupId in dataByGroup.data) {
            tooltipVisibleOpacity = 0;
            setTimeout(() =&gt; {
                onMouseMove(e);
            }, 0);
        }
        if (!(groupId in dataByGroup.data)) {
            hideTooltip();
        }
        else if (shapeId &amp;&amp; tooltip.shapeId === shapeId) {
            tooltip.element.setAttribute('x', posX);
            tooltip.element.setAttribute('y', posY);
            tooltip.element.style.display = 'block';
            tooltip.element.style.opacity = tooltipVisibleOpacity;
        }
        else {
            const data = dataByGroup.data[groupId][shapeId];
            if (!data) {
                tooltip.element.style.display = 'none';
                return;
            }
            const tt = constructTooltip(data, dataByGroup.tooltips[groupId], shapeId);
            tooltip.element.replaceWith(tt);
            tooltip.element = tt;
            tooltip.shapeId = shapeId;
            tooltip.element.setAttribute('x', posX);
            tooltip.element.setAttribute('y', posY);
            tooltip.element.style.opacity = tooltipVisibleOpacity;
        }
    }
            
        mapElement.addEventListener('mousemove', (e) =&gt; {
            onMouseMove(e);
            const parent = e.target.parentNode;
            if (e.target.tagName === 'path' &amp;&amp; parent.tagName === 'g') {
                if (e.target.previousPos === undefined) e.target.previousPos = Array.from(parent.children).indexOf(e.target);
                if (e.target !== parent.lastElementChild) parent.append(e.target);
            } 
        });

        mapElement.addEventListener('mouseout', (e) =&gt; {
            const previousPos = e.target.previousPos;
            if (previousPos) {
                const parent = e.target.parentNode;
                parent.insertBefore(e.target, parent.children[previousPos]);
            }
        });
    
        }
        </script></svg>